<?xml version="1.0" encoding="UTF-8"?>
<svg width="964px" height="487px" viewBox="0 0 964 487" version="1.1" xmlns="http://www.w3.org/2000/svg" xmlns:xlink="http://www.w3.org/1999/xlink">
    <!-- Generator: Sketch 52.6 (67491) - http://www.bohemiancoding.com/sketch -->
    <title>coming-soon</title>
    <desc>Created with Sketch.</desc>
    <defs>
        <polygon id="path-1" points="0.132816484 0.0573045455 6.83957324 0.0573045455 6.83957324 7 0.132816484 7"></polygon>
        <polygon id="path-3" points="0 0.260069619 3.85196799 0.260069619 3.85196799 3.66161267 0 3.66161267"></polygon>
        <polygon id="path-5" points="0 0.325087024 4.81495999 0.325087024 4.81495999 4.57701584 0 4.57701584"></polygon>
        <polygon id="path-7" points="0 0.260069619 3.85196799 0.260069619 3.85196799 3.66161267 0 3.66161267"></polygon>
        <polygon id="path-9" points="0 0.325087024 4.81495999 0.325087024 4.81495999 4.57701584 0 4.57701584"></polygon>
        <polygon id="path-11" points="0 0.260069619 3.85196799 0.260069619 3.85196799 3.66161267 0 3.66161267"></polygon>
        <path d="M1.965,8.985 C6.12,12.635625 10.269375,8.251875 10.269375,8.251875 C10.269375,8.251875 8.38875,2.570625 1.7925,0.159375 C1.7925,0.159375 -2.19,5.32875 1.965,8.985" id="path-13"></path>
        <path d="M1.965,8.985 C2.58,9.523125 3.195,9.886875 3.793125,10.115625 C5.053125,9.3975 6.133125,8.35125 6.91875,6.84 C7.485,5.6175 7.36875,4.41 6.879375,3.2925 C5.62875,2.105625 3.969375,0.954375 1.7925,0.159375 C1.7925,0.159375 -2.19,5.32875 1.965,8.985" id="path-15"></path>
        <polygon id="path-17" points="0 0.0598125 10.3636875 0.0598125 10.3636875 10.5116762 0 10.5116762"></polygon>
        <path d="M0.691875,11.514375 C-0.24375,12.755625 4.126875,19.790625 10.4025,20.505 C11.383125,20.604375 20.038125,11.0775 20.038125,11.0775 C20.038125,11.0775 13.059375,9.650625 8.323125,1.02 C8.323125,1.02 1.6275,10.273125 0.691875,11.514375" id="path-19"></path>
        <path d="M0.691875,11.514375 C-0.045,12.495 2.52375,17.090625 6.73125,19.329375 C8.585625,17.59875 10.276875,15.676875 11.82,13.59 C13.273125,11.525625 13.591875,9.405 13.295625,7.310625 C11.611875,5.835 9.85125,3.8025 8.323125,1.02 C8.323125,1.02 1.6275,10.273125 0.691875,11.514375" id="path-21"></path>
        <path d="M0.868125,0.93375 C-0.331875,2.32875 1.321875,5.720625 4.561875,8.505 C7.801875,11.289375 11.4,12.418125 12.601875,11.02125 C13.801875,9.62625 12.148125,6.23625 8.908125,3.451875 C6.61125,1.4775 4.134375,0.335625 2.458125,0.335625 C1.771875,0.335625 1.21875,0.52875 0.868125,0.93375" id="path-23"></path>
        <linearGradient x1="11.9037665%" y1="63.057743%" x2="88.0933841%" y2="36.9484458%" id="linearGradient-25">
            <stop stop-color="#FFA511" offset="0%"></stop>
            <stop stop-color="#F4AE11" offset="100%"></stop>
        </linearGradient>
        <path d="M0.868125,0.93375 C-0.331875,2.32875 1.321875,5.720625 4.561875,8.505 C7.545,11.07 10.83375,12.22875 12.271875,11.304375 C5.821875,9.826875 0.253125,3.474375 1.8225,0.40125 C1.426875,0.489375 1.1025,0.661875 0.868125,0.93375" id="path-26"></path>
        <path d="M0.249375,25.8225 C-0.32625,29.488125 8.0625,35.866875 10.036875,34.468125 C21.31125,25.75125 33.9,27.405 33.9,27.405 C32.289375,23.713125 16.306875,2.28375 4.216875,1.5225 C5.985,18.52125 0.46125,24.7125 0.249375,25.8225" id="path-28"></path>
        <path d="M1.108125,5.428125 C1.719375,7.711875 4.723125,14.41875 16.291875,23.835 C22.03875,28.513125 28.54125,31.56 31.453125,32.244375 C33.88125,32.818125 36.665625,31.06125 36.665625,31.06125 C36.665625,31.06125 26.89875,31.2075 16.185,21.29625 C5.47125,11.385 1.64625,4.63875 0.931875,0.75 C0.931875,0.75 0.493125,3.14625 1.108125,5.428125" id="path-30"></path>
        <linearGradient x1="26.7999773%" y1="64.8066803%" x2="66.612272%" y2="36.1325255%" id="linearGradient-32">
            <stop stop-color="#1A1826" offset="0%"></stop>
            <stop stop-color="#4B4954" offset="100%"></stop>
        </linearGradient>
        <path d="M1.5975,2.5425 C-0.94125,5.555625 4.614375,15.148125 14.626875,23.585625 C19.899375,28.0275 25.29,31.575 29.566875,33.489375 C30.0975,32.934375 30.586875,32.341875 31.02375,31.711875 C33.511875,28.125 33.42375,24.24375 31.978125,20.5425 C29.4525,17.645625 26.3325,14.62875 22.94625,11.776875 C15.230625,5.2725 8.233125,1.51875 4.269375,1.51875 C3.09,1.51875 2.17875,1.850625 1.5975,2.5425" id="path-33"></path>
        <path d="M0.343125,1.014375 C1.108125,3.57375 1.2225,6.18375 0.83625,8.701875 C3.07875,11.615625 6.324375,14.971875 10.205625,18.241875 C14.949375,22.2375 19.659375,25.284375 23.26875,26.863125 C25.378125,26.085 27.5325,25.644375 29.715,25.813125 C29.2425,22.5225 24.226875,16.1775 17.045625,10.126875 C10.34625,4.48125 3.718125,0.736875 0.159375,0.331875 C0.223125,0.5925 0.3225,0.82875 0.343125,1.014375" id="path-35"></path>
        <path d="M4.21125,1.88625 C3.410625,2.28375 1.426875,4.486875 1.426875,4.486875 C2.600625,6.02625 6.70125,8.93625 6.70125,8.93625 C6.70125,8.93625 8.38125,6.673125 8.77875,5.80875 C9.17625,4.9425 8.533125,3.403125 7.430625,2.499375 C6.721875,1.918125 5.923125,1.666875 5.23125,1.66875 C4.846875,1.66875 4.49625,1.745625 4.21125,1.88625" id="path-37"></path>
        <path d="M4.21125,1.88625 C3.410625,2.28375 1.426875,4.486875 1.426875,4.486875 C2.113125,5.38875 4.070625,6.96375 5.355,7.94625 C6.01125,7.4175 7.531875,5.76375 7.921875,4.985625 C8.31375,4.246875 8.625,3.67875 7.96875,3.035625 C7.8075,2.8425 7.6275,2.660625 7.430625,2.499375 C6.721875,1.918125 5.923125,1.66875 5.23125,1.66875 C4.846875,1.66875 4.49625,1.745625 4.21125,1.88625" id="path-39"></path>
        <path d="M1.5375,2.71125 C-1.09875,5.77125 5.090625,15.673125 15.234375,24.405 C25.37625,33.136875 33.358125,37.1325 36.76875,34.96875 C38.844375,33.6525 38.35125,30.890625 37.69875,29.251875 C38.221875,30.93375 38.49,32.551875 37.33125,33.733125 C34.599375,36.5175 25.239375,31.57875 15.571875,23.25375 C5.9025,14.9325 0.129375,5.788125 2.67375,2.833125 C3.5025,1.873125 5.1075,1.68375 7.228125,2.154375 C6.1125,1.815 5.135625,1.65 4.303125,1.65 C3.06,1.65 2.135625,2.015625 1.5375,2.71125" id="path-41"></path>
        <path d="M0.721875,6.579375 C0.37875,7.4175 3.0075,9.66 3.474375,9.635625 C3.945,9.609375 4.04625,8.88375 4.914375,9.16875 C5.7825,9.455625 12.414375,13.846875 12.414375,13.846875 C12.414375,13.846875 11.821875,14.25 11.938125,14.4075 C12.054375,14.563125 12.256875,14.94 12.564375,14.91375 C12.87,14.889375 13.396875,14.289375 13.396875,14.289375 C13.396875,14.289375 14.11125,14.2125 16.3125,12.015 C16.539375,11.80125 15.92625,11.33625 15.826875,11.36625 C15.729375,11.4 15.32625,11.6625 15.32625,11.6625 C15.32625,11.6625 10.2525,6.83625 10.014375,6.62625 C9.77625,6.418125 10.018125,6.11625 9.894375,5.925 C9.76875,5.731875 7.929375,4.389375 7.783125,3.976875 C7.636875,3.564375 6.350625,2.02875 5.308125,1.73625 C5.304375,1.734375 5.300625,1.734375 5.296875,1.734375 C4.89,1.734375 0.898125,6.144375 0.721875,6.579375" id="path-43"></path>
        <path d="M0.721875,4.704375 C0.37875,5.5425 3.0075,7.785 3.474375,7.760625 C3.945,7.734375 4.04625,7.00875 4.914375,7.29375 C5.7825,7.580625 12.414375,11.971875 12.414375,11.971875 C12.414375,11.971875 11.821875,12.375 11.938125,12.5325 C12.054375,12.688125 12.256875,13.065 12.564375,13.03875 C12.87,13.014375 13.396875,12.414375 13.396875,12.414375 C13.396875,12.414375 13.689375,12.3825 14.47125,11.78625 C14.45625,11.600625 14.41875,11.413125 14.349375,11.210625 C13.26,7.9275 9.345,5.835 7.224375,2.806875 C6.601875,1.8225 4.951875,1.573125 4.2,0.673125 C3.02625,1.719375 0.868125,4.3425 0.721875,4.704375" id="path-45"></path>
        <polygon id="path-47" points="0 0.030244489 27.9152705 0.030244489 27.9152705 27.9438878 0 27.9438878"></polygon>
    </defs>
    <g id="pages" stroke="none" stroke-width="1" fill="none" fill-rule="evenodd">
        <g id="coming-soon-page" transform="translate(-94.000000, -155.000000)">
            <g id="coming-soon" transform="translate(94.000000, 155.000000)">
                <g id="Group-5">
                    <path d="M812.168112,143.122836 C811.784997,142.389163 811.262186,141.800204 810.59898,141.356319 C810.010512,140.799838 809.319717,140.42416 808.526944,140.229284 C807.717059,139.967284 806.907173,139.929752 806.097636,140.11705 C805.286703,140.154942 804.531648,140.403951 803.832122,140.864076 C803.35995,141.153142 802.939466,141.495258 802.566479,141.887176 C802.283944,142.112727 802.001759,142.337918 801.719574,142.563469 C801.414339,142.971627 801.108754,143.379784 800.803869,143.787942 L800.213654,145.233275 C799.969536,146.03732 799.934612,146.841726 800.108883,147.645771 C800.110629,148.191786 800.243689,148.70099 800.508761,149.172663 C800.647759,149.685116 800.898862,150.130083 801.261721,150.507566 C801.521904,150.962277 801.872191,151.324242 802.311883,151.593099 C802.877302,152.127926 803.541205,152.488809 804.302896,152.676106 C804.41151,152.720856 804.51698,152.750087 804.631181,152.77174 C805.835009,153.0009 806.853739,153.153914 808.055821,152.745396 C808.53812,152.535362 809.020769,152.324968 809.503068,152.114574 C809.539389,152.098334 809.574313,152.08029 809.608538,152.060802 C809.660924,152.030488 809.70877,151.994761 809.758012,151.959395 C810.16767,151.632435 810.577677,151.305115 810.987334,150.977795 C811.01213,150.958669 811.035879,150.938459 811.058929,150.916806 C811.115156,150.865922 811.165796,150.809985 811.215388,150.752244 C811.970443,149.966604 812.492905,149.04058 812.782075,147.973813 C812.854716,147.415889 812.927358,146.858327 813,146.300403 C812.996508,145.163985 812.719212,144.104796 812.168112,143.122836" id="Fill-1" fill="#FFFFFF" opacity="0.696126302"></path>
                    <path d="M300,353 C297.386608,353 294.883315,355.299833 295.004208,358 C295.12541,360.709118 297.1991,363 300,363 C302.613084,363 305.116685,360.700475 304.995792,358 C304.87459,355.290882 302.8009,353 300,353" id="Fill-3" fill="#FFFFFF"></path>
                    <path d="M264.5,237 C262.068448,237 260,239.068448 260,241.5 C260,243.940552 262.059448,246 264.5,246 C266.931862,246 269,243.931862 269,241.5 C269,239.059448 266.940552,237 264.5,237" id="Fill-5" fill="#FFFFFF" opacity="0.696126302"></path>
                    <path d="M361.5,380 C359.068448,380 357,382.068448 357,384.5 C357,386.940552 359.059448,389 361.5,389 C363.931862,389 366,386.931862 366,384.5 C366,382.059448 363.940552,380 361.5,380" id="Fill-5" fill="#F9FAFC"></path>
                    <path d="M575.851795,115.115555 C575.658483,114.462244 575.30868,113.894995 574.803492,113.413809 C573.926039,112.757013 573.7342,112.598128 572.682214,112.237848 C572.197277,112.071645 571.64017,112.046558 571.144923,112.002307 C570.574193,111.982098 570.042492,112.094642 569.548718,112.339939 C569.035061,112.498127 568.590627,112.768163 568.215786,113.150394 C567.811488,113.505447 567.526122,113.926005 567.358953,114.411721 C567.099363,114.878969 566.980798,115.382455 567.002523,115.922177 C567.051863,116.269565 567.100836,116.616953 567.150176,116.96434 C567.346802,117.628105 567.702128,118.204761 568.215786,118.693961 C568.908027,119.295356 569.822669,119.788737 570.785179,119.840654 C570.979227,119.886299 571.176221,119.9194 571.380212,119.92811 C571.922222,120.043093 572.463864,120.020097 573.005506,119.859469 C573.329533,119.729852 573.654298,119.600235 573.978694,119.470618 C574.453689,119.228457 574.83479,118.897098 575.122364,118.477236 C575.37459,118.236817 575.54986,117.953193 575.645964,117.626363 C575.901504,117.167128 576.018596,116.671657 575.997608,116.140645 C575.948635,115.798832 575.900399,115.457368 575.851795,115.115555" id="Fill-7" fill="#F9FAFC"></path>
                    <path d="M225.89616,171.717827 C225.852422,171.690899 225.808999,171.662997 225.764946,171.637366 C225.749527,171.629579 225.734109,171.622117 225.719005,171.61433 C225.217746,171.285346 224.676839,171.107552 224.096285,171.080299 C223.709564,170.973234 223.322843,170.973234 222.935807,171.080299 C222.711766,171.062779 222.500627,171.096846 222.302704,171.182174 C222.248896,171.202289 222.196033,171.225325 222.142855,171.246738 C221.802389,171.395008 221.461923,171.543278 221.121143,171.691547 C220.622716,171.968621 220.222779,172.347244 219.921016,172.827418 C219.655755,173.102544 219.472621,173.426986 219.370985,173.800419 C219.103206,174.326014 218.980487,174.892489 219.002514,175.499844 L219.15544,176.672376 C219.299241,177.023422 219.443043,177.374468 219.586529,177.725839 C219.855566,178.239754 220.222779,178.65212 220.68848,178.963259 C221.101634,179.352914 221.58653,179.616036 222.142855,179.752626 C222.196348,179.774039 222.249211,179.796101 222.302704,179.81719 C222.968532,180.079988 223.460036,180.007313 224.096285,179.919064 C224.489929,179.917767 224.857142,179.815568 225.197607,179.612143 C225.39144,179.539143 225.580553,179.456086 225.764946,179.361998 C225.808999,179.336367 225.852422,179.308465 225.89616,179.281537 C227.185651,178.492494 228,177.051 228,175.499844 C228,173.948364 227.185651,172.506869 225.89616,171.717827" id="Fill-9" fill="#FFFFFF" opacity="0.696126302"></path>
                    <path d="M589.993335,451.52355 C589.990293,451.453307 589.983195,451.382312 589.977788,451.312445 C589.993335,450.856427 589.907827,450.43121 589.721266,450.036796 C589.601286,449.62623 589.395798,449.271257 589.105479,448.971502 C588.835438,448.648833 588.516054,448.420449 588.146987,448.287099 C587.791777,448.07975 587.409192,447.984715 586.999568,448.001994 C586.228989,448.040308 585.430359,448.321657 584.893319,448.971502 C584.738189,449.195003 584.582722,449.418129 584.427592,449.641255 C584.158227,450.15775 584.0227,450.714813 584.02101,451.312445 C584.015941,451.382688 584.009857,451.453307 584.005464,451.52355 C583.973018,452.043802 584.088605,452.430328 584.258606,452.878082 C584.329918,453.160182 584.458686,453.40547 584.644571,453.613195 C584.720277,453.749925 584.809164,453.87426 584.910218,453.986574 C584.943001,454.020005 584.978488,454.051183 585.012962,454.083112 C585.267455,454.388125 585.56859,454.602987 585.91704,454.728824 C586.251971,454.924529 586.612589,455.014305 586.999568,454.998153 C587.248316,454.96059 587.497403,454.923778 587.746489,454.88659 C588.222355,454.738215 588.635358,454.470389 588.986174,454.083112 C589.019972,454.051183 589.055797,454.020005 589.088918,453.986574 C589.436693,453.636109 589.573572,453.316445 589.740193,452.878082 C589.87572,452.618144 589.943991,452.337922 589.945004,452.036665 C589.994349,451.866503 590.010571,451.69559 589.993335,451.52355" id="Fill-11" fill="#F9FAFC"></path>
                    <path d="M482.5,120 C479.169255,120 479.164079,125 482.5,125 C485.830399,125 485.836266,120 482.5,120" id="Fill-15" fill="#FFFFFF"></path>
                    <path d="M256.951296,346.370824 C256.93467,346.009135 256.827066,345.672477 256.627859,345.360536 C256.262071,344.794851 255.688606,344.237925 254.999068,344.111209 C254.37635,343.997008 253.936212,343.937874 253.317259,344.098068 C252.852024,344.21884 252.570311,344.385291 252.21864,344.656558 C251.858813,344.933456 251.742739,345.00448 251.466673,345.470357 C251.321738,345.715029 251.280956,345.798255 251.141354,346.207814 C251.034064,346.523509 251.004262,346.868302 251.000183,347.201519 C250.991086,347.955871 251.321111,348.635445 251.821167,349.178916 C252.17127,349.525274 252.583801,349.765252 253.05876,349.897913 C253.43145,350.014617 253.804139,350.0312 254.176829,349.947974 C254.549832,349.931078 254.897425,349.820319 255.219293,349.616009 C255.545867,349.440483 255.80813,349.200192 256.005769,348.895761 C256.071962,348.823798 256.131254,348.748081 256.185839,348.669236 C256.191173,348.663917 256.196506,348.659537 256.201525,348.654218 C256.343636,348.47087 256.485748,348.287523 256.627859,348.104176 C256.827066,347.792235 256.93467,347.455264 256.951296,347.093575 C257.016235,346.852658 257.016235,346.612054 256.951296,346.370824" id="Fill-17" fill="#FFFFFF" opacity="0.696126302"></path>
                    <path d="M262.999941,392 C260.335562,392 260.331145,396 262.999941,396 C265.66432,396 265.669052,392 262.999941,392" id="Fill-19" fill="#FFFFFF"></path>
                    <path d="M574.5,182 C571.169475,182 571.16386,187 574.5,187 C577.830525,187 577.83614,182 574.5,182" id="Fill-21" fill="#FFFFFF"></path>
                    <path d="M624,106 C620.003472,106 619.99653,112 624,112 C627.996528,112 628.00347,106 624,106" id="Fill-23" fill="#FFFFFF"></path>
                    <path d="M710.851795,139.115555 C710.658483,138.462244 710.30868,137.894995 709.803492,137.413809 C708.926039,136.757013 708.7342,136.598128 707.682214,136.237848 C707.197277,136.071645 706.64017,136.046558 706.144923,136.002307 C705.574193,135.982098 705.042492,136.094642 704.548718,136.339939 C704.035061,136.498127 703.590627,136.768163 703.215786,137.150394 C702.811488,137.505447 702.526122,137.926005 702.358953,138.411721 C702.099363,138.878969 701.980798,139.382455 702.002523,139.922177 C702.051863,140.269565 702.100836,140.616953 702.150176,140.96434 C702.346802,141.628105 702.702128,142.204761 703.215786,142.693961 C703.908027,143.295356 704.822669,143.788737 705.785179,143.840654 C705.979227,143.886299 706.176221,143.9194 706.380212,143.92811 C706.922222,144.043093 707.463864,144.020097 708.005506,143.859469 C708.329533,143.729852 708.654298,143.600235 708.978694,143.470618 C709.453689,143.228457 709.83479,142.897098 710.122364,142.477236 C710.37459,142.236817 710.54986,141.953193 710.645964,141.626363 C710.901504,141.167128 711.018596,140.671657 710.997608,140.140645 C710.948635,139.798832 710.900399,139.457368 710.851795,139.115555" id="Fill-7" fill="#FFFFFF" opacity="0.696126302"></path>
                    <path d="M606.999939,313 C604.33579,313 604.330918,318 606.999939,318 C609.664413,318 609.66896,313 606.999939,313" id="Fill-27" fill="#F9FAFC"></path>
                    <path d="M409.00023,145 C406.335404,145 406.33111,149 409.00023,149 C411.664442,149 411.668737,145 409.00023,145" id="Fill-31" fill="#FFFFFF"></path>
                    <path d="M255.5,291 C253.501827,291 253.498174,294 255.5,294 C257.498173,294 257.501826,291 255.5,291" id="Fill-33" fill="#FFFFFF"></path>
                    <path d="M243.499945,480 C240.169496,480 240.163876,486 243.499945,486 C246.830689,486 246.836013,480 243.499945,480" id="Fill-35" fill="#F9FAFC"></path>
                    <path d="M324.499942,434 C321.169313,434 321.16406,439 324.499942,439 C327.830571,439 327.836133,434 324.499942,434" id="Fill-37" fill="#F8F9FB"></path>
                    <path d="M238.267586,315.664456 C238.041034,315.443638 237.773103,315.287471 237.463103,315.19627 C237.165172,315.054472 236.844138,314.989506 236.5,315.001375 C235.853448,315.027611 235.182759,315.219695 234.732069,315.664456 C234.283103,316.107656 234,316.652051 234,317.265784 L234,317.734282 C234,318.314596 234.278966,318.924581 234.732069,319.335297 C234.958621,319.556116 235.226552,319.712283 235.536552,319.803484 C235.834483,319.945282 236.155517,320.010248 236.5,319.998691 C237.146552,319.972455 237.816897,319.780059 238.267586,319.335297 C238.716552,318.89241 239,318.347703 239,317.734282 L239,317.265784 C239,316.685158 238.721034,316.074861 238.267586,315.664456" id="Fill-39" fill="#FFFFFF"></path>
                    <path d="M627.000061,392 C624.335587,392 624.33104,397 627.000061,397 C629.664535,397 629.668757,392 627.000061,392" id="Fill-41" fill="#FFFFFF"></path>
                    <path d="M491.499856,422 C488.169399,422 488.164031,427 491.499856,427 C494.830697,427 494.836065,422 491.499856,422" id="Fill-43" fill="#FFFFFF"></path>
                    <path d="M534.668156,68.4589183 C534.514212,67.9630472 534.250553,67.5338659 533.877521,67.171733 C533.40026,66.6758619 532.837628,66.3330906 532.189623,66.1430604 C531.511789,65.9523132 530.833612,65.9523132 530.156121,66.1430604 L529.686404,66.3130119 C529.395316,66.4417304 529.104228,66.5700904 528.81314,66.6984504 C528.387308,66.9386772 528.045134,67.2671066 527.787303,67.6833802 C527.560673,67.9218143 527.403986,68.203274 527.317243,68.5270423 C527.088212,68.9823976 526.983297,69.4736075 527.002155,69.9999552 C527.046041,70.3387825 527.089241,70.6776098 527.132784,71.0164372 L527.501701,71.930016 C527.731074,72.3753319 528.045134,72.7331623 528.443194,73.0027899 C528.79634,73.3405416 529.210514,73.5685778 529.686404,73.687257 L530.156121,73.8572085 C530.833612,74.0475972 531.511789,74.0475972 532.189623,73.8572085 C532.837628,73.6671783 533.40026,73.324407 533.877521,72.8285359 C534.076723,72.5589082 534.275924,72.288922 534.475469,72.0189358 C534.821414,71.3950633 534.995587,70.7220697 534.997644,69.9999552 C535.017873,69.4492263 534.907815,68.9357864 534.668156,68.4589183" id="Fill-45" fill="#FFFFFF"></path>
                    <path d="M330.5,126 C329.833907,126 329.83276,127 330.5,127 C331.166093,127 331.16724,126 330.5,126" id="Fill-49" fill="#FFFFFF"></path>
                    <path d="M301.173334,126.829482 C300.983451,126.684747 300.79326,126.540316 300.603378,126.395886 C300.164237,126.144808 299.690459,126.018356 299.182355,126.016832 C297.945647,125.89434 296.678014,126.452256 295.817359,127.304213 C295.311728,127.804844 295,128.541622 295,129.248234 C295,129.922852 295.303997,130.728189 295.817359,131.19256 C296.349276,131.67369 297.047263,132.030805 297.79071,131.997897 C298.329122,131.97413 298.821455,131.833661 299.261833,131.568262 C299.911885,131.61214 300.744707,131.175802 301.173334,130.753175 C301.661646,130.272045 302.029659,129.482553 301.998115,128.791481 C301.965643,128.073899 301.72628,127.329808 301.173334,126.829482" id="Fill-51" fill="#FFFFFF"></path>
                    <path d="M195.232104,293.6424 C194.878459,293.0216 194.395864,292.523249 193.783674,292.147654 C193.240473,291.676786 192.602816,291.358905 191.871026,291.19401 C191.123439,290.972317 190.375852,290.940559 189.628587,291.099042 C188.880034,291.131105 188.18306,291.341805 187.537343,291.731141 C187.101493,291.975736 186.713354,292.265219 186.369057,292.596841 C186.108256,292.787692 185.847778,292.978238 185.587299,293.169089 C185.305543,293.514453 185.023466,293.859818 184.742033,294.205182 L184.197219,295.428155 C183.97188,296.108501 183.939642,296.789153 184.100507,297.469499 C184.102119,297.931511 184.224944,298.362377 184.469626,298.761484 C184.597931,299.195098 184.829718,299.571609 185.164666,299.891017 C185.404835,300.275773 185.728177,300.582051 186.134046,300.809546 C186.655971,301.262092 187.268805,301.567453 187.971904,301.725936 C188.072163,301.763801 188.16952,301.788535 188.274936,301.806857 C189.386162,302.000762 190.326529,302.130235 191.436142,301.784566 C191.881342,301.606845 192.326863,301.428819 192.772063,301.250793 C192.80559,301.237052 192.837827,301.221784 192.86942,301.205294 C192.917776,301.179644 192.961941,301.149413 193.007396,301.119488 C193.385542,300.84283 193.764009,300.565867 194.142155,300.288904 C194.165044,300.27272 194.186965,300.255619 194.208242,300.237298 C194.260144,300.194242 194.306888,300.146911 194.352666,300.098053 C195.04964,299.43328 195.531912,298.649722 195.798838,297.747073 C195.865892,297.274983 195.932946,296.803199 196,296.33111 C195.996776,295.369526 195.740811,294.473289 195.232104,293.6424" id="Fill-1" fill="#FFFFFF" opacity="0.696126302"></path>
                    <path d="M797.5,196 C795.501827,196 795.498174,199 797.5,199 C799.498173,199 799.501826,196 797.5,196" id="Fill-33" fill="#FFFFFF"></path>
                    <path d="M778.267586,222.797348 C778.041034,222.532365 777.773103,222.344966 777.463103,222.235524 C777.165172,222.065366 776.844138,221.987408 776.5,222.00165 C775.853448,222.033133 775.182759,222.263634 774.732069,222.797348 C774.283103,223.329187 774,223.982461 774,224.718941 L774,225.281139 C774,225.977515 774.278966,226.709497 774.732069,227.202357 C774.958621,227.46734 775.226552,227.654739 775.536552,227.76418 C775.834483,227.934339 776.155517,228.012297 776.5,227.998429 C777.146552,227.966946 777.816897,227.73607 778.267586,227.202357 C778.716552,226.670892 779,226.017243 779,225.281139 L779,224.718941 C779,224.02219 778.721034,223.289833 778.267586,222.797348" id="Fill-39" fill="#FFFFFF"></path>
                    <path d="M730.168112,198.122836 C729.784997,197.389163 729.262186,196.800204 728.59898,196.356319 C728.010512,195.799838 727.319717,195.42416 726.526944,195.229284 C725.717059,194.967284 724.907173,194.929752 724.097636,195.11705 C723.286703,195.154942 722.531648,195.403951 721.832122,195.864076 C721.35995,196.153142 720.939466,196.495258 720.566479,196.887176 C720.283944,197.112727 720.001759,197.337918 719.719574,197.563469 C719.414339,197.971627 719.108754,198.379784 718.803869,198.787942 L718.213654,200.233275 C717.969536,201.03732 717.934612,201.841726 718.108883,202.645771 C718.110629,203.191786 718.243689,203.70099 718.508761,204.172663 C718.647759,204.685116 718.898862,205.130083 719.261721,205.507566 C719.521904,205.962277 719.872191,206.324242 720.311883,206.593099 C720.877302,207.127926 721.541205,207.488809 722.302896,207.676106 C722.41151,207.720856 722.51698,207.750087 722.631181,207.77174 C723.835009,208.0009 724.853739,208.153914 726.055821,207.745396 C726.53812,207.535362 727.020769,207.324968 727.503068,207.114574 C727.539389,207.098334 727.574313,207.08029 727.608538,207.060802 C727.660924,207.030488 727.70877,206.994761 727.758012,206.959395 C728.16767,206.632435 728.577677,206.305115 728.987334,205.977795 C729.01213,205.958669 729.035879,205.938459 729.058929,205.916806 C729.115156,205.865922 729.165796,205.809985 729.215388,205.752244 C729.970443,204.966604 730.492905,204.04058 730.782075,202.973813 C730.854716,202.415889 730.927358,201.858327 731,201.300403 C730.996508,200.163985 730.719212,199.104796 730.168112,198.122836" id="Fill-1" fill="#F9FAFC"></path>
                    <path d="M144,132 C141.386608,132 138.883315,134.299833 139.004208,137 C139.12541,139.709118 141.1991,142 144,142 C146.613084,142 149.116685,139.700475 148.995792,137 C148.87459,134.290882 146.8009,132 144,132" id="Fill-3" fill="#F8F9FB"></path>
                    <path d="M465.999863,472 C460.671286,472 460.662141,480 465.999863,480 C471.328806,480 471.337951,472 465.999863,472" id="Fill-53" fill="#FFFFFF" opacity="0.696126302"></path>
                    <path d="M529,352 C523.671175,352 523.662161,360 529,360 C534.328825,360 534.337839,352 529,352" id="Fill-55" fill="#FFFFFF"></path>
                    <path d="M607.848393,249.642055 C607.647673,248.925321 607.284669,248.302849 606.759737,247.774992 C606.581794,247.597142 606.403851,247.419293 606.225908,247.241443 C605.842619,246.828833 605.388865,246.53716 604.863933,246.36678 C604.359287,246.101784 603.815849,245.980491 603.232908,246.002544 C602.650322,245.980491 602.106173,246.101784 601.601882,246.36678 C601.077306,246.53716 600.623196,246.828833 600.239551,247.241443 C600.018901,247.527069 599.798608,247.81234 599.577959,248.097966 C599.195026,248.757787 599.002491,249.469541 599,250.233226 C599.05018,250.608132 599.100716,250.983039 599.151252,251.357945 C599.352327,252.074679 599.714975,252.696796 600.239551,253.225008 L600.77338,253.758557 C601.157025,254.170812 601.611135,254.462485 602.135711,254.63322 C602.640002,254.898216 603.184151,255.019509 603.766737,254.997456 C604.349678,255.019509 604.893116,254.898216 605.397762,254.63322 C605.922694,254.462485 606.376448,254.170812 606.759737,253.758557 C606.980743,253.472931 607.201392,253.18766 607.422041,252.90239 C607.804974,252.242213 607.997509,251.530459 608,250.766774 C607.949108,250.391868 607.898928,250.016961 607.848393,249.642055" id="Fill-57" fill="#FFFFFF" opacity="0.696126302"></path>
                    <path d="M584.999874,319 C579.670916,319 579.662503,328 584.999874,328 C590.329168,328 590.337581,319 584.999874,319" id="Fill-59" fill="#F9FAFC"></path>
                    <path d="M613.499929,192 C610.169352,192 610.16403,197 613.499929,197 C616.830506,197 616.836207,192 613.499929,192" id="Fill-61" fill="#FFFFFF"></path>
                    <path d="M215.880757,386.449709 C215.722369,385.884959 215.436307,385.394565 215.023173,384.978528 C214.72085,384.653406 214.363122,384.423713 213.949987,384.289148 C213.552511,384.080527 213.124321,383.984797 212.665116,384.001956 C212.063181,384.004063 211.502198,384.155787 210.981865,384.457429 C210.481106,384.753652 210.082124,385.152228 209.785824,385.653158 C209.670797,385.82445 209.55577,385.995741 209.440743,386.167334 C209.332942,386.422615 209.224841,386.678499 209.117041,386.93378 C208.983344,387.360654 208.964072,387.787227 209.059828,388.214101 C209.060731,388.503702 209.133602,388.774035 209.279042,389.0245 C209.408222,389.422173 209.629845,389.766863 209.942707,390.057367 C210.159512,390.224745 210.376016,390.392123 210.592821,390.559501 C210.84847,390.667273 211.104119,390.775045 211.359769,390.883118 C211.786754,391.01678 212.213439,391.035745 212.640424,390.940316 C213.067711,390.921049 213.465488,390.794311 213.834358,390.559501 C214.005393,390.444503 214.177031,390.329506 214.348066,390.214509 C214.849427,389.917985 215.248108,389.519409 215.544408,389.018479 C215.846129,388.498584 215.997892,387.937446 216,387.335668 C215.960252,387.040649 215.920204,386.745028 215.880757,386.449709" id="Fill-65" fill="#FFFFFF" opacity="0.696126302"></path>
                    <path d="M156.999941,332 C154.335562,332 154.331145,336 156.999941,336 C159.66432,336 159.669052,332 156.999941,332" id="Fill-19" fill="#FFFFFF"></path>
                    <path d="M138.499945,236 C135.169496,236 135.163876,242 138.499945,242 C141.830689,242 141.836013,236 138.499945,236" id="Fill-35" fill="#FFFFFF"></path>
                    <path d="M219.499942,240 C216.169313,240 216.16406,245 219.499942,245 C222.830571,245 222.836133,240 219.499942,240" id="Fill-37" fill="#FFFFFF"></path>
                    <path d="M191.653392,215.313148 C191.491965,214.847258 191.21649,214.444059 190.826967,214.103233 C190.464518,213.736949 190.035738,213.477591 189.540289,213.326113 C189.063792,213.09094 188.550406,212.983059 188.000133,213.002153 C187.645806,213.047342 187.291479,213.092213 186.937151,213.136765 C186.25997,213.315293 185.672132,213.637343 185.173299,214.103233 L184.548235,214.864124 C184.186801,215.450624 184.00473,216.082949 184.002361,216.761418 L184.002361,217.238765 C183.981717,217.756527 184.096442,218.238966 184.346874,218.687353 C184.507963,219.152926 184.783438,219.556443 185.173299,219.89695 C185.53541,220.263553 185.96419,220.522593 186.459977,220.674389 C186.936475,220.909562 187.44986,221.017442 188.000133,220.997712 L189.062776,220.863418 C189.739958,220.684891 190.327796,220.362841 190.826967,219.89695 C191.035096,219.64332 191.243564,219.390008 191.451693,219.136059 C191.813466,218.549878 191.995536,217.917552 191.997567,217.238765 L191.997567,216.761418 C192.018549,216.243974 191.903824,215.761218 191.653392,215.313148" id="Fill-67" fill="#F9FAFC"></path>
                    <g id="Group-71" transform="translate(265.000000, 457.000000)">
                        <mask id="mask-2" fill="white">
                            <use xlink:href="#path-1"></use>
                        </mask>
                        <g id="Clip-70"></g>
                        <path d="M3.48625455,0.0573045455 C-0.981336364,0.0573045455 -0.988654545,7.00003182 3.48625455,7.00003182 C7.95384545,7.00003182 7.96084545,0.0573045455 3.48625455,0.0573045455" id="Fill-69" fill="#F7F8FC" mask="url(#mask-2)"></path>
                    </g>
                    <path d="M429.500127,393 C424.837199,393 424.829384,400 429.500127,400 C434.162716,400 434.170531,393 429.500127,393" id="Fill-72" fill="#FFFFFF" opacity="0.696126302"></path>
                    <path d="M551,417 C548.335628,417 548.331039,421 551,421 C553.664372,421 553.668961,417 551,417" id="Fill-74" fill="#FFFFFF"></path>
                    <g id="Group-78" transform="translate(233.000000, 209.000000)">
                        <mask id="mask-4" fill="white">
                            <use xlink:href="#path-3"></use>
                        </mask>
                        <g id="Clip-77"></g>
                        <path d="M3.85101423,1.70423857 C3.81407811,0.886799879 3.21765062,0.310051468 2.4105056,0.263729942 C1.6760218,0.221646988 0.923675447,0.545292159 0.431092946,1.08722374 C-0.178050257,1.7566152 -0.154738117,2.77689979 0.584287012,3.34789585 C0.918225855,3.60584317 1.28577051,3.70242204 1.70357251,3.6461096 C2.11077808,3.59161368 2.41716621,3.40390554 2.6672419,3.10932486 C2.66936119,3.1090221 2.67117772,3.10811384 2.673297,3.10750833 C2.95576748,3.05210415 3.21159552,2.94008477 3.42897366,2.72270663 C3.67874659,2.4729337 3.86706025,2.06300333 3.85101423,1.70423857 Z" id="Fill-76" fill="#F7F8FC" mask="url(#mask-4)"></path>
                    </g>
                    <path d="M839,263 C836.298276,263 834,265.298276 834,268 C834,270.711724 836.288276,273 839,273 C841.702069,273 844,270.702069 844,268 C844,265.288276 841.711724,263 839,263" id="Fill-5" fill="#FFFFFF"></path>
                    <path d="M834.943179,396.765961 C834.923781,396.343991 834.798244,395.951223 834.565836,395.587292 C834.139083,394.927326 833.470041,394.277579 832.665579,394.129744 C831.939075,393.996509 831.425581,393.92752 830.703469,394.114413 C830.160695,394.255313 829.83203,394.449507 829.421747,394.765984 C829.001948,395.089032 828.866529,395.171893 828.544452,395.715417 C828.375361,396.000867 828.327781,396.097964 828.164913,396.575783 C828.039742,396.944094 828.004972,397.346352 828.000214,397.735105 C827.9896,398.615183 828.374629,399.408019 828.958028,400.042069 C829.366481,400.446153 829.847767,400.726128 830.401887,400.880899 C830.836692,401.017053 831.271496,401.0364 831.706301,400.939303 C832.141471,400.919591 832.546996,400.790372 832.922509,400.55201 C833.303512,400.347231 833.609486,400.066891 833.840064,399.711721 C833.917289,399.627765 833.986463,399.539428 834.050146,399.447442 C834.056368,399.441236 834.06259,399.436126 834.068446,399.429921 C834.234243,399.216015 834.400039,399.00211 834.565836,398.788205 C834.798244,398.424274 834.923781,398.031141 834.943179,397.609171 C835.01894,397.328101 835.01894,397.047396 834.943179,396.765961" id="Fill-17" fill="#F9FAFC"></path>
                    <path d="M765.5,351 C763.501827,351 763.498174,354 765.5,354 C767.498173,354 767.501826,351 765.5,351" id="Fill-33" fill="#FFFFFF"></path>
                    <path d="M746.267586,377.797348 C746.041034,377.532365 745.773103,377.344966 745.463103,377.235524 C745.165172,377.065366 744.844138,376.987408 744.5,377.00165 C743.853448,377.033133 743.182759,377.263634 742.732069,377.797348 C742.283103,378.329187 742,378.982461 742,379.718941 L742,380.281139 C742,380.977515 742.278966,381.709497 742.732069,382.202357 C742.958621,382.46734 743.226552,382.654739 743.536552,382.76418 C743.834483,382.934339 744.155517,383.012297 744.5,382.998429 C745.146552,382.966946 745.816897,382.73607 746.267586,382.202357 C746.716552,381.670892 747,381.017243 747,380.281139 L747,379.718941 C747,379.02219 746.721034,378.289833 746.267586,377.797348" id="Fill-39" fill="#FFFFFF"></path>
                    <path d="M698.168112,354.122836 C697.784997,353.389163 697.262186,352.800204 696.59898,352.356319 C696.010512,351.799838 695.319717,351.42416 694.526944,351.229284 C693.717059,350.967284 692.907173,350.929752 692.097636,351.11705 C691.286703,351.154942 690.531648,351.403951 689.832122,351.864076 C689.35995,352.153142 688.939466,352.495258 688.566479,352.887176 C688.283944,353.112727 688.001759,353.337918 687.719574,353.563469 C687.414339,353.971627 687.108754,354.379784 686.803869,354.787942 L686.213654,356.233275 C685.969536,357.03732 685.934612,357.841726 686.108883,358.645771 C686.110629,359.191786 686.243689,359.70099 686.508761,360.172663 C686.647759,360.685116 686.898862,361.130083 687.261721,361.507566 C687.521904,361.962277 687.872191,362.324242 688.311883,362.593099 C688.877302,363.127926 689.541205,363.488809 690.302896,363.676106 C690.41151,363.720856 690.51698,363.750087 690.631181,363.77174 C691.835009,364.0009 692.853739,364.153914 694.055821,363.745396 C694.53812,363.535362 695.020769,363.324968 695.503068,363.114574 C695.539389,363.098334 695.574313,363.08029 695.608538,363.060802 C695.660924,363.030488 695.70877,362.994761 695.758012,362.959395 C696.16767,362.632435 696.577677,362.305115 696.987334,361.977795 C697.01213,361.958669 697.035879,361.938459 697.058929,361.916806 C697.115156,361.865922 697.165796,361.809985 697.215388,361.752244 C697.970443,360.966604 698.492905,360.04058 698.782075,358.973813 C698.854716,358.415889 698.927358,357.858327 699,357.300403 C698.996508,356.163985 698.719212,355.104796 698.168112,354.122836" id="Fill-1" fill="#FFFFFF"></path>
                    <path d="M870.99993,344 C867.003176,344 866.996872,350 870.99993,350 C874.996685,350 875.00336,344 870.99993,344" id="Fill-37" fill="#FFFFFF"></path>
                    <path d="M693.653392,265.602292 C693.491965,265.078165 693.21649,264.624566 692.826967,264.241137 C692.464518,263.829068 692.035738,263.53729 691.540289,263.366877 C691.063792,263.102307 690.550406,262.980942 690.000133,263.002422 C689.645806,263.05326 689.291479,263.103739 688.937151,263.153861 C688.25997,263.354704 687.672132,263.717011 687.173299,264.241137 L686.548235,265.097139 C686.186801,265.756952 686.00473,266.468318 686.002361,267.231596 L686.002361,267.768611 C685.981717,268.351093 686.096442,268.893836 686.346874,269.398273 C686.507963,269.922041 686.783438,270.375998 687.173299,270.759069 C687.53541,271.171497 687.96419,271.462917 688.459977,271.633688 C688.936475,271.898257 689.44986,272.019623 690.000133,271.997426 L691.062776,271.846346 C691.739958,271.645502 692.327796,271.283196 692.826967,270.759069 C693.035096,270.473735 693.243564,270.188759 693.451693,269.903067 C693.813466,269.243612 693.995536,268.532246 693.997567,267.768611 L693.997567,267.231596 C694.018549,266.649471 693.903824,266.10637 693.653392,265.602292" id="Fill-67" fill="#FFFFFF"></path>
                    <g id="Group-78" transform="translate(742.000000, 259.000000)">
                        <mask id="mask-6" fill="white">
                            <use xlink:href="#path-5"></use>
                        </mask>
                        <g id="Clip-77"></g>
                        <path d="M4.81376779,2.13029821 C4.76759764,1.10849985 4.02206328,0.387564335 3.013132,0.329662428 C2.09502725,0.277058734 1.15459431,0.681615198 0.538866182,1.35902967 C-0.222562822,2.195769 -0.193422646,3.47112474 0.730358765,4.18486982 C1.14778232,4.50730397 1.60721314,4.62802755 2.12946564,4.557637 C2.6384726,4.48951711 3.02145777,4.25488193 3.33405238,3.88665607 C3.33670148,3.88627763 3.33897215,3.88514229 3.34162125,3.88438541 C3.69470936,3.81513018 4.0144944,3.67510596 4.28621708,3.40338329 C4.59843324,3.09116712 4.83382531,2.57875416 4.81376779,2.13029821 Z" id="Fill-76" fill="#F7F8FC" mask="url(#mask-6)"></path>
                    </g>
                    <path d="M293,172 C289.003264,172 288.996737,178 293,178 C296.996736,178 297.003263,172 293,172" id="Fill-79" fill="#F8F9FB"></path>
                    <path d="M320.5,203 C315.837125,203 315.829543,210 320.5,210 C325.162875,210 325.170457,203 320.5,203" id="Fill-81" fill="#FFFFFF"></path>
                    <path d="M400.851795,9.11555529 C400.658483,8.46224361 400.30868,7.89499485 399.803492,7.41380901 C398.926039,6.757013 398.7342,6.5981276 397.682214,6.23784798 C397.197277,6.07164549 396.64017,6.04655832 396.144923,6.00230734 C395.574193,5.98209823 395.042492,6.09464206 394.548718,6.33993882 C394.035061,6.49812735 393.590627,6.76816285 393.215786,7.15039374 C392.811488,7.50544686 392.526122,7.92600537 392.358953,8.41172083 C392.099363,8.87896935 391.980798,9.38245489 392.002523,9.92217745 C392.051863,10.2695651 392.100836,10.6169527 392.150176,10.9643403 C392.346802,11.6281049 392.702128,12.2047614 393.215786,12.6939612 C393.908027,13.2953563 394.822669,13.7887373 395.785179,13.8406538 C395.979227,13.8862985 396.176221,13.9193997 396.380212,13.9281105 C396.922222,14.0430933 397.463864,14.0200968 398.005506,13.8594692 C398.329533,13.7298522 398.654298,13.6002351 398.978694,13.4706181 C399.453689,13.2284572 399.83479,12.8970975 400.122364,12.4772359 C400.37459,12.2368172 400.54986,11.9531928 400.645964,11.6263628 C400.901504,11.1671282 401.018596,10.6716566 400.997608,10.1406449 C400.948635,9.79883221 400.900399,9.45736796 400.851795,9.11555529" id="Fill-7" fill="#FFFFFF" opacity="0.696126302"></path>
                    <path d="M747.89616,65.7178273 C747.852422,65.6908986 747.808999,65.6629966 747.764946,65.6373657 C747.749527,65.6295791 747.734109,65.622117 747.719005,65.6143304 C747.217746,65.2853465 746.676839,65.1075524 746.096285,65.0802993 C745.709564,64.9732336 745.322843,64.9732336 744.935807,65.0802993 C744.711766,65.0627795 744.500627,65.0968458 744.302704,65.182174 C744.248896,65.2022894 744.196033,65.2253248 744.142855,65.2467379 C743.802389,65.3950078 743.461923,65.5432776 743.121143,65.6915475 C742.622716,65.9686207 742.222779,66.3472441 741.921016,66.8274179 C741.655755,67.1025444 741.472621,67.4269861 741.370985,67.8004185 C741.103206,68.3260141 740.980487,68.8924893 741.002514,69.4998441 L741.15544,70.6723764 C741.299241,71.0234223 741.443043,71.3744682 741.586529,71.7258386 C741.855566,72.2397542 742.222779,72.6521196 742.68848,72.9632592 C743.101634,73.3529137 743.58653,73.6160359 744.142855,73.7526259 C744.196348,73.774039 744.249211,73.7961011 744.302704,73.8171898 C744.968532,74.0799875 745.460036,74.0073126 746.096285,73.9190645 C746.489929,73.9177667 746.857142,73.8155676 747.197607,73.6121426 C747.39144,73.5391432 747.580553,73.4560862 747.764946,73.3619981 C747.808999,73.3363672 747.852422,73.3084652 747.89616,73.2815365 C749.185651,72.4924943 750,71.0509999 750,69.4998441 C750,67.9483639 749.185651,66.5068695 747.89616,65.7178273" id="Fill-9" fill="#F8F9FB"></path>
                    <path d="M485.5,13 C482.169255,13 482.164079,18 485.5,18 C488.830399,18 488.836266,13 485.5,13" id="Fill-15" fill="#FFFFFF"></path>
                    <path d="M344,0 C340.003472,0 339.99653,6 344,6 C347.996528,6 348.00347,0 344,0" id="Fill-23" fill="#FFFFFF"></path>
                    <path d="M232,4 C228.003472,4 227.99653,10 232,10 C235.996528,10 236.00347,4 232,4" id="Fill-23" fill="#FFFFFF"></path>
                    <path d="M560.00023,39 C557.335404,39 557.33111,43 560.00023,43 C562.664442,43 562.668737,39 560.00023,39" id="Fill-31" fill="#FFFFFF"></path>
                    <path d="M440.668156,56.4589183 C440.514212,55.9630472 440.250553,55.5338659 439.877521,55.171733 C439.40026,54.6758619 438.837628,54.3330906 438.189623,54.1430604 C437.511789,53.9523132 436.833612,53.9523132 436.156121,54.1430604 L435.686404,54.3130119 C435.395316,54.4417304 435.104228,54.5700904 434.81314,54.6984504 C434.387308,54.9386772 434.045134,55.2671066 433.787303,55.6833802 C433.560673,55.9218143 433.403986,56.203274 433.317243,56.5270423 C433.088212,56.9823976 432.983297,57.4736075 433.002155,57.9999552 C433.046041,58.3387825 433.089241,58.6776098 433.132784,59.0164372 L433.501701,59.930016 C433.731074,60.3753319 434.045134,60.7331623 434.443194,61.0027899 C434.79634,61.3405416 435.210514,61.5685778 435.686404,61.687257 L436.156121,61.8572085 C436.833612,62.0475972 437.511789,62.0475972 438.189623,61.8572085 C438.837628,61.6671783 439.40026,61.324407 439.877521,60.8285359 C440.076723,60.5589082 440.275924,60.288922 440.475469,60.0189358 C440.821414,59.3950633 440.995587,58.7220697 440.997644,57.9999552 C441.017873,57.4492263 440.907815,56.9357864 440.668156,56.4589183" id="Fill-45" fill="#FFFFFF"></path>
                    <path d="M637.5,20 C636.833907,20 636.83276,21 637.5,21 C638.166093,21 638.16724,20 637.5,20" id="Fill-49" fill="#FFFFFF"></path>
                    <path d="M672.173334,20.8294817 C671.983451,20.6847466 671.79326,20.5403161 671.603378,20.3958857 C671.164237,20.1448083 670.690459,20.0183555 670.182355,20.016832 C668.945647,19.8943404 667.678014,20.4522562 666.817359,21.3042129 C666.311728,21.8048441 666,22.5416221 666,23.2482343 C666,23.9228524 666.303997,24.7281891 666.817359,25.1925604 C667.349276,25.6736904 668.047263,26.0308053 668.79071,25.9978971 C669.329122,25.9741301 669.821455,25.8336608 670.261833,25.5682623 C670.911885,25.6121399 671.744707,25.1758016 672.173334,24.753175 C672.661646,24.2720449 673.029659,23.4825529 672.998115,22.7914807 C672.965643,22.0738991 672.72628,21.3298082 672.173334,20.8294817" id="Fill-51" fill="#F9FAFC"></path>
                    <path d="M170.5,89 C168.501827,89 168.498174,92 170.5,92 C172.498173,92 172.501826,89 170.5,89" id="Fill-33" fill="#FFFFFF"></path>
                    <path d="M250.168112,72.1228363 C249.784997,71.3891631 249.262186,70.8002036 248.59898,70.3563186 C248.010512,69.7998385 247.319717,69.4241603 246.526944,69.229284 C245.717059,68.9672836 244.907173,68.9297518 244.097636,69.1170496 C243.286703,69.1549422 242.531648,69.4039509 241.832122,69.8640755 C241.35995,70.153142 240.939466,70.4952582 240.566479,70.8871762 C240.283944,71.1127274 240.001759,71.3379179 239.719574,71.5634691 C239.414339,71.9716268 239.108754,72.3797844 238.803869,72.787942 L238.213654,74.2332747 C237.969536,75.0373199 237.934612,75.841726 238.108883,76.6457713 C238.110629,77.1917858 238.243689,77.7009904 238.508761,78.1726633 C238.647759,78.6851158 238.898862,79.1300834 239.261721,79.507566 C239.521904,79.9622774 239.872191,80.3242421 240.311883,80.5930993 C240.877302,81.1279265 241.541205,81.4888086 242.302896,81.6761064 C242.41151,81.7208557 242.51698,81.7500872 242.631181,81.7717401 C243.835009,82.0009002 244.853739,82.1539142 246.055821,81.7453957 C246.53812,81.5353623 247.020769,81.3249681 247.503068,81.1145739 C247.539389,81.0983342 247.574313,81.0802901 247.608538,81.0608024 C247.660924,81.0304883 247.70877,80.994761 247.758012,80.9593946 C248.16767,80.6324354 248.577677,80.3051154 248.987334,79.9777954 C249.01213,79.9586686 249.035879,79.9384592 249.058929,79.9168063 C249.115156,79.8659219 249.165796,79.8099852 249.215388,79.7522441 C249.970443,78.9666038 250.492905,78.0405804 250.782075,76.9738131 C250.854716,76.4158894 250.927358,75.8583266 251,75.3004029 C250.996508,74.1639853 250.719212,73.1047964 250.168112,72.1228363" id="Fill-1" fill="#F9FAFC"></path>
                    <path d="M824,26 C821.386608,26 818.883315,28.2998333 819.004208,31 C819.12541,33.7091178 821.1991,36 824,36 C826.613084,36 829.116685,33.7004753 828.995792,31 C828.87459,28.2908822 826.8009,26 824,26" id="Fill-3" fill="#F9FAFC"></path>
                    <path d="M354.499929,85 C351.169352,85 351.16403,90 354.499929,90 C357.830506,90 357.836207,85 354.499929,85" id="Fill-61" fill="#FFFFFF"></path>
                    <path d="M783.653392,108.313148 C783.491965,107.847258 783.21649,107.444059 782.826967,107.103233 C782.464518,106.736949 782.035738,106.477591 781.540289,106.326113 C781.063792,106.09094 780.550406,105.983059 780.000133,106.002153 C779.645806,106.047342 779.291479,106.092213 778.937151,106.136765 C778.25997,106.315293 777.672132,106.637343 777.173299,107.103233 L776.548235,107.864124 C776.186801,108.450624 776.00473,109.082949 776.002361,109.761418 L776.002361,110.238765 C775.981717,110.756527 776.096442,111.238966 776.346874,111.687353 C776.507963,112.152926 776.783438,112.556443 777.173299,112.89695 C777.53541,113.263553 777.96419,113.522593 778.459977,113.674389 C778.936475,113.909562 779.44986,114.017442 780.000133,113.997712 L781.062776,113.863418 C781.739958,113.684891 782.327796,113.362841 782.826967,112.89695 C783.035096,112.64332 783.243564,112.390008 783.451693,112.136059 C783.813466,111.549878 783.995536,110.917552 783.997567,110.238765 L783.997567,109.761418 C784.018549,109.243974 783.903824,108.761218 783.653392,108.313148" id="Fill-67" fill="#F8F9FB"></path>
                    <g id="Group-78" transform="translate(731.000000, 102.000000)">
                        <mask id="mask-8" fill="white">
                            <use xlink:href="#path-7"></use>
                        </mask>
                        <g id="Clip-77"></g>
                        <path d="M3.85101423,1.70423857 C3.81407811,0.886799879 3.21765062,0.310051468 2.4105056,0.263729942 C1.6760218,0.221646988 0.923675447,0.545292159 0.431092946,1.08722374 C-0.178050257,1.7566152 -0.154738117,2.77689979 0.584287012,3.34789585 C0.918225855,3.60584317 1.28577051,3.70242204 1.70357251,3.6461096 C2.11077808,3.59161368 2.41716621,3.40390554 2.6672419,3.10932486 C2.66936119,3.1090221 2.67117772,3.10811384 2.673297,3.10750833 C2.95576748,3.05210415 3.21159552,2.94008477 3.42897366,2.72270663 C3.67874659,2.4729337 3.86706025,2.06300333 3.85101423,1.70423857 Z" id="Fill-76" fill="#F7F8FC" mask="url(#mask-8)"></path>
                    </g>
                    <path d="M675,66 C671.003264,66 670.996737,72 675,72 C678.996736,72 679.003263,66 675,66" id="Fill-79" fill="#F9FAFC"></path>
                    <path d="M816,437 C812.86393,437 809.859978,439.7598 810.00505,443 C810.150492,446.250941 812.63892,449 816,449 C819.135701,449 822.140023,446.24057 821.994951,443 C821.849509,439.749059 819.361081,437 816,437" id="Fill-3" fill="#F8F9FB"></path>
                    <path d="M117,425 C114.386608,425 111.883315,427.299833 112.004208,430 C112.12541,432.709118 114.1991,435 117,435 C119.613084,435 122.116685,432.700475 121.995792,430 C121.87459,427.290882 119.8009,425 117,425" id="Fill-3" fill="#F9FAFC"></path>
                    <path d="M847.5,486 C846.833907,486 846.83276,487 847.5,487 C848.166093,487 848.16724,486 847.5,486" id="Fill-49" fill="#FFFFFF"></path>
                    <path d="M714.055238,421.967729 C713.83823,421.798871 713.620869,421.630369 713.403861,421.461867 C712.901985,421.168943 712.360525,421.021415 711.779834,421.019637 C710.366454,420.87673 708.91773,421.527632 707.934125,422.521582 C707.356261,423.105651 707,423.965226 707,424.789607 C707,425.576661 707.347425,426.516221 707.934125,427.057987 C708.54203,427.619305 709.339729,428.03594 710.189383,427.997547 C710.804711,427.969818 711.367377,427.805938 711.870666,427.496306 C712.613583,427.547497 713.56538,427.038435 714.055238,426.545371 C714.61331,425.984052 715.033896,425.062978 714.997845,424.256727 C714.960735,423.419549 714.687177,422.551443 714.055238,421.967729" id="Fill-51" fill="#F9FAFC"></path>
                    <path d="M865.500063,138 C862.169318,138 862.163975,144 865.500063,144 C868.830807,144 868.835817,138 865.500063,138" id="Fill-25" fill="#FFFFFF"></path>
                    <path d="M773.999939,297 C771.33579,297 771.330918,302 773.999939,302 C776.664413,302 776.66896,297 773.999939,297" id="Fill-27" fill="#FFFFFF"></path>
                    <path d="M846.499929,189 C843.169352,189 843.16403,194 846.499929,194 C849.830506,194 849.836207,189 846.499929,189" id="Fill-61" fill="#FFFFFF"></path>
                    <path d="M870.5,17 C869.833907,17 869.83276,18 870.5,18 C871.166093,18 871.16724,17 870.5,17" id="Fill-49" fill="#FFFFFF"></path>
                    <path d="M905.173334,18.8294817 C904.983451,18.6847466 904.79326,18.5403161 904.603378,18.3958857 C904.164237,18.1448083 903.690459,18.0183555 903.182355,18.016832 C901.945647,17.8943404 900.678014,18.4522562 899.817359,19.3042129 C899.311728,19.8048441 899,20.5416221 899,21.2482343 C899,21.9228524 899.303997,22.7281891 899.817359,23.1925604 C900.349276,23.6736904 901.047263,24.0308053 901.79071,23.9978971 C902.329122,23.9741301 902.821455,23.8336608 903.261833,23.5682623 C903.911885,23.6121399 904.744707,23.1758016 905.173334,22.753175 C905.661646,22.2720449 906.029659,21.4825529 905.998115,20.7914807 C905.965643,20.0738991 905.72628,19.3298082 905.173334,18.8294817" id="Fill-51" fill="#F8F9FB"></path>
                    <path d="M939,70 C935.003264,70 934.996737,76 939,76 C942.996736,76 943.003263,70 939,70" id="Fill-79" fill="#FFFFFF"></path>
                    <path d="M880.5,94 C875.837125,94 875.829543,101 880.5,101 C885.162875,101 885.170457,94 880.5,94" id="Fill-81" fill="#F9FAFC"></path>
                    <path d="M941.999933,409 C938.003395,409 937.996651,415 941.999933,415 C945.996827,415 946.003216,409 941.999933,409" id="Fill-35" fill="#FFFFFF" opacity="0.696126302"></path>
                    <path d="M109.168112,111.122836 C108.784997,110.389163 108.262186,109.800204 107.59898,109.356319 C107.010512,108.799838 106.319717,108.42416 105.526944,108.229284 C104.717059,107.967284 103.907173,107.929752 103.097636,108.11705 C102.286703,108.154942 101.531648,108.403951 100.832122,108.864076 C100.35995,109.153142 99.9394663,109.495258 99.5664789,109.887176 C99.2839444,110.112727 99.0017591,110.337918 98.7195738,110.563469 C98.4143387,110.971627 98.1087544,111.379784 97.8038686,111.787942 L97.2136544,113.233275 C96.9695362,114.03732 96.9346122,114.841726 97.1088826,115.645771 C97.1106288,116.191786 97.2436889,116.70099 97.5087615,117.172663 C97.6477587,117.685116 97.8988617,118.130083 98.2617212,118.507566 C98.5219044,118.962277 98.8721913,119.324242 99.3118835,119.593099 C99.8773018,120.127926 100.541205,120.488809 101.302896,120.676106 C101.41151,120.720856 101.51698,120.750087 101.631181,120.77174 C102.835009,121.0009 103.853739,121.153914 105.055821,120.745396 C105.53812,120.535362 106.020769,120.324968 106.503068,120.114574 C106.539389,120.098334 106.574313,120.08029 106.608538,120.060802 C106.660924,120.030488 106.70877,119.994761 106.758012,119.959395 C107.16767,119.632435 107.577677,119.305115 107.987334,118.977795 C108.01213,118.958669 108.035879,118.938459 108.058929,118.916806 C108.115156,118.865922 108.165796,118.809985 108.215388,118.752244 C108.970443,117.966604 109.492905,117.04058 109.782075,115.973813 C109.854716,115.415889 109.927358,114.858327 110,114.300403 C109.996508,113.163985 109.719212,112.104796 109.168112,111.122836" id="Fill-1" fill="#FFFFFF" opacity="0.696126302"></path>
                    <path d="M8.85179501,106.115555 C8.65848299,105.462244 8.30868027,104.894995 7.80349151,104.413809 C6.92603902,103.757013 6.73419985,103.598128 5.68221421,103.237848 C5.19727719,103.071645 4.64017034,103.046558 4.14492334,103.002307 C3.5741926,102.982098 3.04249248,103.094642 2.54871833,103.339939 C2.03506066,103.498127 1.59062711,103.768163 1.21578589,104.150394 C0.811487591,104.505447 0.52612222,104.926005 0.358953344,105.411721 C0.0993629093,105.878969 -0.0192017998,106.382455 0.00252278973,106.922177 C0.051863383,107.269565 0.100835763,107.616953 0.150176356,107.96434 C0.346802302,108.628105 0.702128216,109.204761 1.21578589,109.693961 C1.90802704,110.295356 2.82266909,110.788737 3.78517887,110.840654 C3.97922732,110.886299 4.17622148,110.9194 4.38021169,110.92811 C4.92222179,111.043093 5.46386368,111.020097 6.00550556,110.859469 C6.32953334,110.729852 6.65429754,110.600235 6.97869353,110.470618 C7.4536888,110.228457 7.83478965,109.897098 8.1223643,109.477236 C8.37459047,109.236817 8.54986004,108.953193 8.64596373,108.626363 C8.90150382,108.167128 9.01859567,107.671657 8.99760751,107.140645 C8.94863513,106.798832 8.90039918,106.457368 8.85179501,106.115555" id="Fill-7" fill="#FFFFFF" opacity="0.696126302"></path>
                    <path d="M94.5,163 C92.5018272,163 92.4981736,166 94.5,166 C96.4981728,166 96.5018264,163 94.5,163" id="Fill-33" fill="#FFFFFF"></path>
                    <path d="M76.2675862,190.797348 C76.0410345,190.532365 75.7731034,190.344966 75.4631034,190.235524 C75.1651724,190.065366 74.8441379,189.987408 74.5,190.00165 C73.8534483,190.033133 73.1827586,190.263634 72.732069,190.797348 C72.2831034,191.329187 72,191.982461 72,192.718941 L72,193.281139 C72,193.977515 72.2789655,194.709497 72.732069,195.202357 C72.9586207,195.46734 73.2265517,195.654739 73.5365517,195.76418 C73.8344828,195.934339 74.1555172,196.012297 74.5,195.998429 C75.1465517,195.966946 75.8168966,195.73607 76.2675862,195.202357 C76.7165517,194.670892 77,194.017243 77,193.281139 L77,192.718941 C77,192.02219 76.7210345,191.289833 76.2675862,190.797348" id="Fill-39" fill="#F8F9FB"></path>
                    <path d="M131.943179,363.765961 C131.923781,363.343991 131.798244,362.951223 131.565836,362.587292 C131.139083,361.927326 130.470041,361.277579 129.665579,361.129744 C128.939075,360.996509 128.425581,360.92752 127.703469,361.114413 C127.160695,361.255313 126.83203,361.449507 126.421747,361.765984 C126.001948,362.089032 125.866529,362.171893 125.544452,362.715417 C125.375361,363.000867 125.327781,363.097964 125.164913,363.575783 C125.039742,363.944094 125.004972,364.346352 125.000214,364.735105 C124.9896,365.615183 125.374629,366.408019 125.958028,367.042069 C126.366481,367.446153 126.847767,367.726128 127.401887,367.880899 C127.836692,368.017053 128.271496,368.0364 128.706301,367.939303 C129.141471,367.919591 129.546996,367.790372 129.922509,367.55201 C130.303512,367.347231 130.609486,367.066891 130.840064,366.711721 C130.917289,366.627765 130.986463,366.539428 131.050146,366.447442 C131.056368,366.441236 131.06259,366.436126 131.068446,366.429921 C131.234243,366.216015 131.400039,366.00211 131.565836,365.788205 C131.798244,365.424274 131.923781,365.031141 131.943179,364.609171 C132.01894,364.328101 132.01894,364.047396 131.943179,363.765961" id="Fill-17" fill="#F9FAFC"></path>
                    <path d="M63.5,318 C61.5018272,318 61.4981736,321 63.5,321 C65.4981728,321 65.5018264,318 63.5,318" id="Fill-33" fill="#FFFFFF"></path>
                    <path d="M21.9999304,261 C18.0031758,261 17.9968718,267 21.9999304,267 C25.9966851,267 26.0033599,261 21.9999304,261" id="Fill-37" fill="#FFFFFF"></path>
                    <g id="Group-78" transform="translate(39.000000, 226.000000)">
                        <mask id="mask-10" fill="white">
                            <use xlink:href="#path-9"></use>
                        </mask>
                        <g id="Clip-77"></g>
                        <path d="M4.81376779,2.13029821 C4.76759764,1.10849985 4.02206328,0.387564335 3.013132,0.329662428 C2.09502725,0.277058734 1.15459431,0.681615198 0.538866182,1.35902967 C-0.222562822,2.195769 -0.193422646,3.47112474 0.730358765,4.18486982 C1.14778232,4.50730397 1.60721314,4.62802755 2.12946564,4.557637 C2.6384726,4.48951711 3.02145777,4.25488193 3.33405238,3.88665607 C3.33670148,3.88627763 3.33897215,3.88514229 3.34162125,3.88438541 C3.69470936,3.81513018 4.0144944,3.67510596 4.28621708,3.40338329 C4.59843324,3.09116712 4.83382531,2.57875416 4.81376779,2.13029821 Z" id="Fill-76" fill="#F7F8FC" mask="url(#mask-10)"></path>
                    </g>
                    <path d="M44.8961603,32.7178273 C44.8524221,32.6908986 44.8089985,32.6629966 44.7649456,32.6373657 C44.7495271,32.6295791 44.7341086,32.622117 44.7190048,32.6143304 C44.2177459,32.2853465 43.6768395,32.1075524 43.0962854,32.0802993 C42.7095641,31.9732336 42.3228427,31.9732336 41.9358067,32.0802993 C41.7117663,32.0627795 41.5006272,32.0968458 41.3027039,32.182174 C41.2488964,32.2022894 41.1960329,32.2253248 41.1428548,32.2467379 C40.802389,32.3950078 40.4619232,32.5432776 40.1211427,32.6915475 C39.6227158,32.9686207 39.2227785,33.3472441 38.9210163,33.8274179 C38.655755,34.1025444 38.4726209,34.4269861 38.3709846,34.8004185 C38.103206,35.3260141 37.9804873,35.8924893 38.0025137,36.4998441 L38.1554402,37.6723764 C38.2992414,38.0234223 38.4430426,38.3744682 38.5865291,38.7258386 C38.8555663,39.2397542 39.2227785,39.6521196 39.6884804,39.9632592 C40.1016335,40.3529137 40.5865299,40.6160359 41.1428548,40.7526259 C41.1963476,40.774039 41.2492111,40.7961011 41.3027039,40.8171898 C41.9685317,41.0799875 42.460036,41.0073126 43.0962854,40.9190645 C43.4899294,40.9177667 43.8571416,40.8155676 44.1976075,40.6121426 C44.3914401,40.5391432 44.5805529,40.4560862 44.7649456,40.3619981 C44.8089985,40.3363672 44.8524221,40.3084652 44.8961603,40.2815365 C46.185651,39.4924943 47,38.0509999 47,36.4998441 C47,34.9483639 46.185651,33.5068695 44.8961603,32.7178273" id="Fill-9" fill="#FFFFFF" opacity="0.696126302"></path>
                    <path d="M124,23 C121.386608,23 118.883315,25.2998333 119.004208,28 C119.12541,30.7091178 121.1991,33 124,33 C126.613084,33 129.116685,30.7004753 128.995792,28 C128.87459,25.2908822 126.8009,23 124,23" id="Fill-3" fill="#FFFFFF" opacity="0.560267857"></path>
                    <g id="Group-78" transform="translate(29.000000, 70.000000)">
                        <mask id="mask-12" fill="white">
                            <use xlink:href="#path-11"></use>
                        </mask>
                        <g id="Clip-77"></g>
                        <path d="M3.85101423,1.70423857 C3.81407811,0.886799879 3.21765062,0.310051468 2.4105056,0.263729942 C1.6760218,0.221646988 0.923675447,0.545292159 0.431092946,1.08722374 C-0.178050257,1.7566152 -0.154738117,2.77689979 0.584287012,3.34789585 C0.918225855,3.60584317 1.28577051,3.70242204 1.70357251,3.6461096 C2.11077808,3.59161368 2.41716621,3.40390554 2.6672419,3.10932486 C2.66936119,3.1090221 2.67117772,3.10811384 2.673297,3.10750833 C2.95576748,3.05210415 3.21159552,2.94008477 3.42897366,2.72270663 C3.67874659,2.4729337 3.86706025,2.06300333 3.85101423,1.70423857 Z" id="Fill-76" fill="#F7F8FC" mask="url(#mask-12)"></path>
                    </g>
                    <path d="M145.5,454 C144.833907,454 144.83276,455 145.5,455 C146.166093,455 146.16724,454 145.5,454" id="Fill-49" fill="#FFFFFF"></path>
                    <path d="M51.0552384,399.967729 C50.8382303,399.798871 50.6208687,399.630369 50.4038606,399.461867 C49.9019851,399.168943 49.360525,399.021415 48.7798339,399.019637 C47.3664536,398.87673 45.9177299,399.527632 44.9341246,400.521582 C44.3562609,401.105651 44,401.965226 44,402.789607 C44,403.576661 44.3474251,404.516221 44.9341246,405.057987 C45.5420301,405.619305 46.3397294,406.03594 47.1893834,405.997547 C47.804711,405.969818 48.3673771,405.805938 48.8706663,405.496306 C49.6135834,405.547497 50.5653797,405.038435 51.0552384,404.545371 C51.6133098,403.984052 52.0338956,403.062978 51.9978454,402.256727 C51.9607349,401.419549 51.6871774,400.551443 51.0552384,399.967729" id="Fill-51" fill="#FFFFFF"></path>
                    <path d="M6.99993348,379 C3.00339474,379 2.99665103,385 6.99993348,385 C10.9968271,385 11.0032159,379 6.99993348,379" id="Fill-35" fill="#F9FAFC"></path>
                    <path d="M963.168112,196.122836 C962.784997,195.389163 962.262186,194.800204 961.59898,194.356319 C961.010512,193.799838 960.319717,193.42416 959.526944,193.229284 C958.717059,192.967284 957.907173,192.929752 957.097636,193.11705 C956.286703,193.154942 955.531648,193.403951 954.832122,193.864076 C954.35995,194.153142 953.939466,194.495258 953.566479,194.887176 C953.283944,195.112727 953.001759,195.337918 952.719574,195.563469 C952.414339,195.971627 952.108754,196.379784 951.803869,196.787942 L951.213654,198.233275 C950.969536,199.03732 950.934612,199.841726 951.108883,200.645771 C951.110629,201.191786 951.243689,201.70099 951.508761,202.172663 C951.647759,202.685116 951.898862,203.130083 952.261721,203.507566 C952.521904,203.962277 952.872191,204.324242 953.311883,204.593099 C953.877302,205.127926 954.541205,205.488809 955.302896,205.676106 C955.41151,205.720856 955.51698,205.750087 955.631181,205.77174 C956.835009,206.0009 957.853739,206.153914 959.055821,205.745396 C959.53812,205.535362 960.020769,205.324968 960.503068,205.114574 C960.539389,205.098334 960.574313,205.08029 960.608538,205.060802 C960.660924,205.030488 960.70877,204.994761 960.758012,204.959395 C961.16767,204.632435 961.577677,204.305115 961.987334,203.977795 C962.01213,203.958669 962.035879,203.938459 962.058929,203.916806 C962.115156,203.865922 962.165796,203.809985 962.215388,203.752244 C962.970443,202.966604 963.492905,202.04058 963.782075,200.973813 C963.854716,200.415889 963.927358,199.858327 964,199.300403 C963.996508,198.163985 963.719212,197.104796 963.168112,196.122836" id="Fill-1" fill="#F8F9FB"></path>
                    <path d="M956.99993,290 C953.003176,290 952.996872,296 956.99993,296 C960.996685,296 961.00336,290 956.99993,290" id="Fill-37" fill="#F9FAFC"></path>
                </g>
                <g id="Group-4" transform="translate(287.000000, 138.000000)">
                    <g id="Group-118" transform="translate(104.000000, 0.000000)">
                        <path d="M188.947047,119.144464 L162.733243,145.362409 L156.220236,151.871275 L119.621841,188.473811 C115.547347,192.548305 110.670598,195.320308 105.496247,196.793686 C102.232013,196.138299 99.0152638,194.946788 95.9732655,193.191545 L53.6442416,168.752585 L10.2785807,125.3872 C7.32796104,122.43658 5.06033476,119.064956 3.4759779,115.463091 C2.89623415,114.156735 2.41173401,112.818355 2.01447151,111.460098 C-1.22602,100.360766 1.52610641,87.8830243 10.2785807,79.13055 L32.4896681,56.9197386 L38.998258,50.4108727 L79.6079276,9.80120311 C81.5180452,7.89108547 83.6029142,6.26697476 85.8147746,4.93273592 C90.4930307,5.27395653 95.067761,6.67196718 99.2493699,9.08646188 L160.521107,44.4618736 L188.947047,72.8878141 C190.023162,73.9639289 191.012039,75.0999506 191.905673,76.279039 C192.94231,77.6414368 193.851679,79.0629132 194.641787,80.5362906 C201.301387,92.9226539 199.403416,108.692236 188.947047,119.144464" id="Fill-86" fill="#FFFFFF"></path>
                        <path d="M105.496192,196.793575 C103.800303,197.278075 102.073219,197.623437 100.329571,197.825795 C90.7312225,198.953811 80.7278821,195.836446 73.3651364,188.4737 L53.6441864,168.75275 L95.9732103,193.191434 C99.0152086,194.946953 102.231958,196.138189 105.496192,196.793575" id="Fill-88" fill="#FFFFFF"></path>
                        <path d="M160.521162,44.4618736 L99.2494251,9.08646188 C95.0678162,6.67196718 90.4928098,5.27395653 85.8148298,4.93245985 C87.0060652,4.20584768 88.2373305,3.56647314 89.4962027,3.0146123 C101.493309,-2.29501227 116.027761,-0.031250949 125.860492,9.80120311 L154.008431,37.9491427 L160.521162,44.4618736 Z" id="Fill-90" fill="#FFFFFF"></path>
                        <path d="M139.025009,181.655086 C132.09155,193.664063 118.39469,199.386686 105.496219,196.793575 C102.231986,196.138189 99.0152362,194.946677 95.9732379,193.191434 L53.644214,168.75275 L18.7094076,148.582913 C11.4181636,144.373421 6.20405876,137.578824 4.02394618,129.445848 C2.78080993,124.807346 2.61406458,120.049858 3.4759503,115.462981 C2.89620654,114.156625 2.41170641,112.818245 2.0144439,111.459988 C0.183833983,117.456747 0.060707453,123.858498 1.72457202,130.061204 C4.06756499,138.809814 9.67506743,146.120658 17.5181722,150.648181 L60.1569449,175.265481 L94.7817265,195.256702 C96.5847295,196.296928 98.4393574,197.150808 100.329598,197.825795 C104.034713,199.152304 107.87096,199.791679 111.675459,199.791679 C123.39843,199.791679 134.819658,193.711823 141.090001,182.846321 L162.733216,145.362298 L156.220209,151.871164 L139.025009,181.655086 Z M177.704408,51.6298805 L154.008348,37.9493083 L100.440578,7.02135942 C96.9541091,5.00799218 93.2489944,3.68562429 89.4961199,3.01450188 C75.8312835,0.568259306 61.4633008,6.73148754 54.1325791,19.4314646 L32.4896405,56.9196282 L38.9982304,50.4107623 L56.1975711,20.6227 C60.4029219,13.3317321 67.2016597,8.11735118 75.3349124,5.9372386 C78.801504,5.00799218 82.3360084,4.67836645 85.814747,4.93262549 C90.493003,5.27412217 95.0677334,6.67185675 99.2493423,9.08635145 L160.521079,44.4617631 L176.513173,53.6948726 C185.130649,58.6710065 190.515917,67.1294678 191.905645,76.2792046 C192.942282,77.6413263 193.851652,79.0630789 194.64176,80.5364562 C194.467008,68.9921017 188.40703,57.8132618 177.704408,51.6298805 Z" id="Fill-92" fill="#061C3F"></path>
                        <path d="M31.9572149,76.6513449 L26.4852621,76.6513449 C26.4852621,72.4920975 24.4387666,70.4906012 21.4312769,70.4906012 C17.4630689,70.4906012 15.5419086,73.7476569 15.5419086,79.1235379 L15.5419086,81.0855564 C15.5419086,86.4614374 17.5050313,89.718493 21.5982983,89.718493 C24.6891607,89.718493 26.7356562,87.7564745 26.7356562,83.5969511 L31.9572149,83.5969511 C31.9572149,90.6601625 27.4879427,94.0348233 21.4312769,94.0348233 C14.2474236,94.0348233 10.0285455,89.6006118 10.0285455,80.1046852 C10.0285455,70.6082064 14.2474236,66.1739949 21.4312769,66.1739949 C27.404294,66.1739949 31.9572149,69.3526471 31.9572149,76.6513449" id="Fill-94" fill="#061C3F"></path>
                        <path d="M98.0788672,93.5639057 L98.0788672,76.4159137 C98.0788672,75.1995561 98.2878511,72.0995834 98.2878511,72.0995834 L98.1202775,72.0995834 L93.1082547,93.5639057 L88.4725132,93.5639057 L83.4179759,72.0995834 L83.2509545,72.0995834 C83.2509545,72.0995834 83.4599383,75.356363 83.4599383,76.4159137 L83.4599383,93.5639057 L78.9072935,93.5639057 L78.9072935,66.6450229 L86.4254657,66.6450229 L89.9754299,81.4779049 C90.3936736,83.2436387 91.1031695,87.560245 91.1031695,87.560245 L91.2707431,87.560245 C91.2707431,87.560245 91.8554561,83.0476301 92.2311852,81.4779049 L95.7400153,66.6450229 L103.007517,66.6450229 L103.007517,93.5639057 L98.0788672,93.5639057 Z" id="Fill-98" fill="#061C3F"></path>
                        <polygon id="Fill-100" fill="#061C3F" points="115.665228 93.5640161 121.01157 93.5640161 121.01157 66.6451333 115.665228 66.6451333"></polygon>
                        <path d="M148.913864,93.5639057 L140.058692,78.7310237 C139.724373,78.1816475 138.763931,76.219629 138.763931,76.219629 L138.596358,76.3375102 C138.596358,76.3375102 138.680282,77.8680338 138.680282,78.5742169 L138.680282,93.5639057 L133.960616,93.5639057 L133.960616,66.6450229 L138.680282,66.6450229 L147.535178,81.4779049 C147.994832,82.1451623 148.829939,83.9892996 148.829939,83.9892996 L148.955274,83.8716944 C148.955274,83.8716944 148.913864,82.0664828 148.913864,81.6347117 L148.913864,66.6450229 L153.675493,66.6450229 L153.675493,93.5639057 L148.913864,93.5639057 Z" id="Fill-102" fill="#061C3F"></path>
                        <path d="M189.054328,76.0628221 L183.582927,76.0628221 C183.582927,72.4134732 181.034815,70.4906565 177.943953,70.4906565 C173.47468,70.4906565 171.469871,73.7477121 171.469871,79.123317 L171.469871,81.0856116 C171.469871,86.5793738 173.516643,89.7182721 177.985915,89.7182721 C181.243523,89.7182721 183.582927,87.1679518 183.582927,83.2436387 L177.150532,83.2436387 L177.150532,78.9270323 L189.054328,78.9270323 L189.054328,93.5639057 L185.587736,93.5639057 L184.668704,90.5815382 C182.831192,92.8577226 180.032687,94.0348785 177.024921,94.0348785 C170.007813,94.0348785 165.956784,89.6793465 165.956784,80.1047404 C165.956784,70.6082616 170.383818,66.1740501 178.110974,66.1740501 C183.875007,66.1740501 189.054328,69.6271143 189.054328,76.0628221" id="Fill-103" fill="#061C3F"></path>
                        <path d="M38.4558608,112.030635 C38.4558608,110.515572 39.4571611,109.324888 41.3142736,108.937564 C41.7336215,108.850051 42.1957601,108.802843 42.7006893,108.802843 C45.2650892,108.802843 46.812729,110.438825 46.812729,113.003224 L46.812729,113.401315 L52.6051973,113.401315 L52.6051973,112.870712 C52.6051973,106.635982 48.139514,103.938793 42.7443082,103.938793 C40.4347195,103.938793 38.2327975,104.451176 36.4753457,105.494715 C34.1618921,106.867879 32.6189455,109.162008 32.6189455,112.42845 C32.6189455,123.96894 47.3427804,119.680216 47.3427804,126.887535 C47.3427804,127.071397 47.3267684,127.255258 47.2997137,127.438292 C47.0675401,129.013262 45.7954167,130.468971 42.7443082,130.468971 C39.6498569,130.468971 37.8810863,128.523517 37.8810863,125.649368 C37.8810863,125.428237 37.9249812,125.030423 37.9249812,124.942081 L35.008594,124.942081 L32.044171,124.942081 C32.044171,125.162936 32,125.561026 32,125.91467 C32,132.149124 36.908221,135.332745 42.4795585,135.332745 C46.7983734,135.332745 50.2387385,134.056205 51.9655467,130.999851 C52.7490289,129.613159 53.1799718,127.860124 53.1799718,125.693539 C53.1799718,114.55114 38.4558608,118.176747 38.4558608,112.030635" id="Fill-114" fill="#A4A7B5"></path>
                        <path d="M107.836639,118.530115 C107.836639,113.828393 109.196,110.566368 111.913066,109.341176 C112.696548,108.987809 113.59239,108.802567 114.601697,108.802567 C119.112103,108.802567 121.367306,112.472621 121.367306,118.530115 L121.367306,120.741147 C121.367306,123.322663 120.955964,125.468819 120.136869,127.08382 C119.033976,129.258411 117.189838,130.468695 114.601697,130.468695 C110.091566,130.468695 107.836639,126.798641 107.836639,120.741147 L107.836639,118.530115 Z M114.601697,103.938793 C111.834939,103.938793 109.452192,104.566296 107.52413,105.846426 C103.99846,108.18721 102,112.71777 102,119.635769 C102,130.336182 106.775432,135.332469 114.601697,135.332469 C118.951431,135.332469 122.356736,133.786762 124.525253,130.578847 C126.258963,128.014447 127.203393,124.389392 127.203393,119.635769 C127.203393,108.93508 122.428237,103.938793 114.601697,103.938793 Z" id="Fill-115" fill="#A4A7B5"></path>
                        <path d="M160.870499,104.938793 L158.675479,104.938793 L155.829489,104.938793 L155.829489,116.333242 L155.829489,121.829765 C155.829489,122.315922 155.873936,124.349994 155.873936,124.349994 L155.741423,124.482783 C155.741423,124.482783 154.857176,122.40454 154.371019,121.652805 L144.996563,104.938793 L142.846266,104.938793 L140,104.938793 L140,135.271538 L144.996563,135.271538 L144.996563,132.425272 L144.996563,118.380566 C144.996563,117.584937 144.908497,115.403996 144.908497,115.403996 L145.084905,115.727824 C145.084905,115.727824 146.102217,117.93858 146.455861,118.557526 L147.842553,121.029719 L155.829489,135.271538 L160.870499,135.271538 L160.870499,132.425272 L160.870499,104.938793 Z" id="Fill-116" fill="#A4A7B5"></path>
                        <path d="M70.8363632,118.530115 C70.8363632,113.828669 72.1957243,110.566644 74.91279,109.341453 C75.6962722,108.988085 76.5921144,108.802567 77.6016967,108.802567 C82.1121031,108.802567 84.3667542,112.472621 84.3667542,118.530115 L84.3667542,120.741147 C84.3667542,123.322663 83.9556883,125.469096 83.1365931,127.08382 C82.0336997,129.258411 80.1898385,130.468695 77.6016967,130.468695 C73.0912903,130.468695 70.8363632,126.798641 70.8363632,120.741147 L70.8363632,118.530115 Z M77.6016967,103.938793 C74.8349387,103.938793 72.4519158,104.566296 70.5241298,105.846426 C66.9981835,108.18721 65,112.71777 65,119.635769 C65,130.336182 69.775156,135.332469 77.6016967,135.332469 C81.9511552,135.332469 85.3564596,133.786762 87.5252534,130.578847 C89.2589633,128.014447 90.2033934,124.389392 90.2033934,119.635769 C90.2033934,108.93508 85.4279613,103.938793 77.6016967,103.938793 Z" id="Fill-117" fill="#A4A7B5"></path>
                    </g>
                    <g id="Group-1123" transform="translate(45.453271, 152.281775) rotate(14.000000) translate(-45.453271, -152.281775) translate(9.828271, 107.281775)">
                        <g id="Group-3" transform="translate(0.000000, 74.046938)">
                            <mask id="mask-14" fill="white">
                                <use xlink:href="#path-13"></use>
                            </mask>
                            <g id="Clip-2"></g>
                            <path d="M1.965,8.985 C6.12,12.635625 10.269375,8.251875 10.269375,8.251875 C10.269375,8.251875 8.38875,2.570625 1.7925,0.159375 C1.7925,0.159375 -2.19,5.32875 1.965,8.985" id="Fill-1" fill="#061C3F" mask="url(#mask-14)"></path>
                        </g>
                        <g id="Group-6" transform="translate(0.000000, 74.046938)">
                            <mask id="mask-16" fill="white">
                                <use xlink:href="#path-15"></use>
                            </mask>
                            <g id="Clip-5"></g>
                            <path d="M1.965,8.985 C2.58,9.523125 3.195,9.886875 3.793125,10.115625 C5.053125,9.3975 6.133125,8.35125 6.91875,6.84 C7.485,5.6175 7.36875,4.41 6.879375,3.2925 C5.62875,2.105625 3.969375,0.954375 1.7925,0.159375 C1.7925,0.159375 -2.19,5.32875 1.965,8.985" id="Fill-4" fill="#061C3F" mask="url(#mask-16)"></path>
                        </g>
                        <g id="Group-9" transform="translate(0.000000, 74.046938)">
                            <mask id="mask-18" fill="white">
                                <use xlink:href="#path-17"></use>
                            </mask>
                            <g id="Clip-8"></g>
                        </g>
                        <g id="Group-12" transform="translate(0.000000, 62.796938)">
                            <mask id="mask-20" fill="white">
                                <use xlink:href="#path-19"></use>
                            </mask>
                            <g id="Clip-11"></g>
                            <path d="M0.691875,11.514375 C-0.24375,12.755625 4.126875,19.790625 10.4025,20.505 C11.383125,20.604375 20.038125,11.0775 20.038125,11.0775 C20.038125,11.0775 13.059375,9.650625 8.323125,1.02 C8.323125,1.02 1.6275,10.273125 0.691875,11.514375" id="Fill-10" fill="#061C3F" mask="url(#mask-20)"></path>
                        </g>
                        <g id="Group-15" transform="translate(0.000000, 62.796938)">
                            <mask id="mask-22" fill="white">
                                <use xlink:href="#path-21"></use>
                            </mask>
                            <g id="Clip-14"></g>
                            <path d="M0.691875,11.514375 C-0.045,12.495 2.52375,17.090625 6.73125,19.329375 C8.585625,17.59875 10.276875,15.676875 11.82,13.59 C13.273125,11.525625 13.591875,9.405 13.295625,7.310625 C11.611875,5.835 9.85125,3.8025 8.323125,1.02 C8.323125,1.02 1.6275,10.273125 0.691875,11.514375" id="Fill-13" fill="#061C3F" mask="url(#mask-22)"></path>
                        </g>
                        <g id="Group-20" transform="translate(7.500000, 62.796938)">
                            <mask id="mask-24" fill="white">
                                <use xlink:href="#path-23"></use>
                            </mask>
                            <g id="Clip-19"></g>
                            <path d="M0.868125,0.93375 C-0.331875,2.32875 1.321875,5.720625 4.561875,8.505 C7.801875,11.289375 11.4,12.418125 12.601875,11.02125 C13.801875,9.62625 12.148125,6.23625 8.908125,3.451875 C6.61125,1.4775 4.134375,0.335625 2.458125,0.335625 C1.771875,0.335625 1.21875,0.52875 0.868125,0.93375" id="Fill-18" fill="url(#linearGradient-25)" mask="url(#mask-24)"></path>
                        </g>
                        <g id="Group-23" transform="translate(7.500000, 62.796938)">
                            <mask id="mask-27" fill="white">
                                <use xlink:href="#path-26"></use>
                            </mask>
                            <g id="Clip-22"></g>
                            <path d="M0.868125,0.93375 C-0.331875,2.32875 1.321875,5.720625 4.561875,8.505 C7.545,11.07 10.83375,12.22875 12.271875,11.304375 C5.821875,9.826875 0.253125,3.474375 1.8225,0.40125 C1.426875,0.489375 1.1025,0.661875 0.868125,0.93375" id="Fill-21" mask="url(#mask-27)"></path>
                        </g>
                        <g id="Group-28" transform="translate(9.375000, 38.421938)">
                            <mask id="mask-29" fill="white">
                                <use xlink:href="#path-28"></use>
                            </mask>
                            <g id="Clip-27"></g>
                            <path d="M0.249375,25.8225 C-0.32625,29.488125 8.0625,35.866875 10.036875,34.468125 C21.31125,25.75125 33.9,27.405 33.9,27.405 C32.289375,23.713125 16.306875,2.28375 4.216875,1.5225 C5.985,18.52125 0.46125,24.7125 0.249375,25.8225" id="Fill-26" fill="#FFCC00" mask="url(#mask-29)"></path>
                        </g>
                        <g id="Group-36" transform="translate(11.250000, 34.671938)">
                            <mask id="mask-31" fill="white">
                                <use xlink:href="#path-30"></use>
                            </mask>
                            <g id="Clip-35"></g>
                            <path d="M1.108125,5.428125 C1.719375,7.711875 4.723125,14.41875 16.291875,23.835 C22.03875,28.513125 28.54125,31.56 31.453125,32.244375 C33.88125,32.818125 36.665625,31.06125 36.665625,31.06125 C36.665625,31.06125 26.89875,31.2075 16.185,21.29625 C5.47125,11.385 1.64625,4.63875 0.931875,0.75 C0.931875,0.75 0.493125,3.14625 1.108125,5.428125" id="Fill-34" fill="url(#linearGradient-32)" mask="url(#mask-31)"></path>
                        </g>
                        <g id="Group-41" transform="translate(11.250000, 30.921938)">
                            <path d="M0.94875,4.98825 C0.856875,5.79825 0.748125,7.517625 1.18875,9.15825 C1.674375,10.96575 4.20375,17.638875 16.344375,27.520125 C22.108125,32.211375 28.66125,35.252625 31.471875,35.9145 C33.418125,36.372 35.630625,35.292 36.3675,34.885125 C34.636875,34.806375 25.7025,33.966375 16.126875,25.107 C4.693125,14.532 1.68375,8.102625 0.94875,4.98825 Z M36.96375,34.720125 L36.7125,34.8795 C36.684375,34.89825 33.868125,36.651375 31.434375,36.077625 C28.606875,35.413875 22.021875,32.357625 16.239375,27.651375 C4.059375,17.736375 1.515,11.023875 1.0275,9.201375 C0.414375,6.927 0.845625,4.50825 0.849375,4.483875 L0.931875,4.032 L1.014375,4.483875 C1.545,7.371375 4.228125,13.870125 16.24125,24.985125 C26.805,34.757625 36.568125,34.72575 36.665625,34.72575 L36.96375,34.720125 Z" id="Fill-37" fill="#000000"></path>
                            <path d="M22.9479375,11.7759375 C32.9623125,20.2153125 40.6666875,30.0928125 37.5110625,34.1353125 C35.0866875,37.2403125 24.6410625,32.0240625 14.6285625,23.5846875 C4.6141875,15.1471875 -0.9414375,5.5565625 1.5973125,2.5415625 C4.1360625,-0.4696875 12.9335625,3.3365625 22.9479375,11.7759375" id="Fill-39" fill="#12111F"></path>
                        </g>
                        <g id="Group-44" transform="translate(11.250000, 30.921938)">
                            <mask id="mask-34" fill="white">
                                <use xlink:href="#path-33"></use>
                            </mask>
                            <g id="Clip-43"></g>
                            <path d="M1.5975,2.5425 C-0.94125,5.555625 4.614375,15.148125 14.626875,23.585625 C19.899375,28.0275 25.29,31.575 29.566875,33.489375 C30.0975,32.934375 30.586875,32.341875 31.02375,31.711875 C33.511875,28.125 33.42375,24.24375 31.978125,20.5425 C29.4525,17.645625 26.3325,14.62875 22.94625,11.776875 C15.230625,5.2725 8.233125,1.51875 4.269375,1.51875 C3.09,1.51875 2.17875,1.850625 1.5975,2.5425" id="Fill-42" mask="url(#mask-34)"></path>
                        </g>
                        <g id="Group-49" transform="translate(11.250000, 30.921938)">
                            <path d="M2.2250625,2.1043125 C2.0113125,2.2411875 1.8219375,2.4061875 1.6606875,2.5974375 C0.4513125,4.0318125 1.1131875,7.0899375 3.4756875,10.9843125 C5.9525625,15.0661875 9.9331875,19.5174375 14.6825625,23.5205625 C24.3838125,31.6955625 33.9556875,36.4318125 36.9481875,34.5324375 C37.1413125,34.4086875 37.3081875,34.2586875 37.4450625,34.0843125 C38.8925625,32.2280625 38.0825625,28.9674375 35.0994375,24.6511875 C32.4069375,20.7530625 28.0719375,16.2043125 22.8931875,11.8393125 C13.6419375,4.0430625 5.3356875,0.1318125 2.2250625,2.1043125 M37.0363125,34.6749375 C35.0825625,35.9143125 31.1094375,34.3918125 28.1206875,32.8955625 C24.0275625,30.8461875 19.2181875,27.5630625 14.5738125,23.6499375 C9.8113125,19.6355625 5.8194375,15.1693125 3.3331875,11.0724375 C0.9294375,7.1124375 0.2731875,3.9830625 1.5313125,2.4886875 C1.7038125,2.2861875 1.9063125,2.1080625 2.1350625,1.9636875 C5.3094375,-0.0481875 13.6944375,3.8668125 23.0019375,11.7118125 C28.1919375,16.0843125 32.5363125,20.6461875 35.2381875,24.5574375 C38.2663125,28.9411875 39.0744375,32.2693125 37.5763125,34.1855625 C37.4281875,34.3768125 37.2463125,34.5418125 37.0363125,34.6749375" id="Fill-45" fill="#000000"></path>
                            <path d="M22.6696875,15.751125 C31.3734375,23.08425 36.8953125,30.84675 35.0071875,33.087375 C33.1190625,35.328 24.5334375,31.19925 15.8315625,23.866125 C7.1278125,16.533 1.6059375,8.7705 3.4921875,6.529875 C5.3821875,4.28925 13.9678125,8.418 22.6696875,15.751125" id="Fill-47" fill="#A4A7B5"></path>
                        </g>
                        <g id="Group-52" transform="translate(16.875000, 36.546938)">
                            <mask id="mask-36" fill="white">
                                <use xlink:href="#path-35"></use>
                            </mask>
                            <g id="Clip-51"></g>
                            <path d="M0.343125,1.014375 C1.108125,3.57375 1.2225,6.18375 0.83625,8.701875 C3.07875,11.615625 6.324375,14.971875 10.205625,18.241875 C14.949375,22.2375 19.659375,25.284375 23.26875,26.863125 C25.378125,26.085 27.5325,25.644375 29.715,25.813125 C29.2425,22.5225 24.226875,16.1775 17.045625,10.126875 C10.34625,4.48125 3.718125,0.736875 0.159375,0.331875 C0.223125,0.5925 0.3225,0.82875 0.343125,1.014375" id="Fill-50" fill="#A4A7B5" mask="url(#mask-36)"></path>
                        </g>
                        <path d="M15.121125,37.2339375 C15.001125,37.3108125 14.89425,37.4026875 14.808,37.5058125 C13.93425,38.5426875 14.73675,40.9670625 17.00925,44.1601875 C19.336125,47.4301875 22.932375,51.1801875 27.13425,54.7239375 C35.25675,61.5695625 43.489875,65.7433125 45.8805,64.2264375 C46.0005,64.1495625 46.1055,64.0595625 46.193625,63.9545625 C47.067375,62.9176875 46.264875,60.4914375 43.9905,57.2983125 C41.6655,54.0301875 38.06925,50.2801875 33.8655,46.7364375 C25.744875,39.8926875 17.509875,35.7170625 15.121125,37.2339375 M45.9705,64.3689375 C43.4805,65.9458125 35.337375,61.8564375 27.027375,54.8514375 C22.812375,51.3001875 19.20675,47.5389375 16.872375,44.2595625 C14.517375,40.9501875 13.73925,38.5145625 14.678625,37.3970625 C14.778,37.2789375 14.896125,37.1776875 15.031125,37.0933125 C17.51925,35.5126875 25.662375,39.6058125 33.97425,46.6089375 C38.187375,50.1601875 41.794875,53.9214375 44.12925,57.2008125 C46.48425,60.5101875 47.262375,62.9476875 46.321125,64.0633125 C46.22175,64.1795625 46.103625,64.2845625 45.9705,64.3689375" id="Fill-53" fill="#000000"></path>
                        <g id="Group-57" transform="translate(22.500000, 47.796938)">
                            <mask id="mask-38" fill="white">
                                <use xlink:href="#path-37"></use>
                            </mask>
                            <g id="Clip-56"></g>
                            <path d="M4.21125,1.88625 C3.410625,2.28375 1.426875,4.486875 1.426875,4.486875 C2.600625,6.02625 6.70125,8.93625 6.70125,8.93625 C6.70125,8.93625 8.38125,6.673125 8.77875,5.80875 C9.17625,4.9425 8.533125,3.403125 7.430625,2.499375 C6.721875,1.918125 5.923125,1.666875 5.23125,1.66875 C4.846875,1.66875 4.49625,1.745625 4.21125,1.88625" id="Fill-55" fill="#FFCC00" mask="url(#mask-38)"></path>
                        </g>
                        <g id="Group-60" transform="translate(22.500000, 47.796938)">
                            <mask id="mask-40" fill="white">
                                <use xlink:href="#path-39"></use>
                            </mask>
                            <g id="Clip-59"></g>
                            <path d="M4.21125,1.88625 C3.410625,2.28375 1.426875,4.486875 1.426875,4.486875 C2.113125,5.38875 4.070625,6.96375 5.355,7.94625 C6.01125,7.4175 7.531875,5.76375 7.921875,4.985625 C8.31375,4.246875 8.625,3.67875 7.96875,3.035625 C7.8075,2.8425 7.6275,2.660625 7.430625,2.499375 C6.721875,1.918125 5.923125,1.66875 5.23125,1.66875 C4.846875,1.66875 4.49625,1.745625 4.21125,1.88625" id="Fill-58" mask="url(#mask-40)"></path>
                        </g>
                        <g id="Group-77" transform="translate(11.250000, 30.921938)">
                            <mask id="mask-42" fill="white">
                                <use xlink:href="#path-41"></use>
                            </mask>
                            <g id="Clip-76"></g>
                            <path d="M1.5375,2.71125 C-1.09875,5.77125 5.090625,15.673125 15.234375,24.405 C25.37625,33.136875 33.358125,37.1325 36.76875,34.96875 C38.844375,33.6525 38.35125,30.890625 37.69875,29.251875 C38.221875,30.93375 38.49,32.551875 37.33125,33.733125 C34.599375,36.5175 25.239375,31.57875 15.571875,23.25375 C5.9025,14.9325 0.129375,5.788125 2.67375,2.833125 C3.5025,1.873125 5.1075,1.68375 7.228125,2.154375 C6.1125,1.815 5.135625,1.65 4.303125,1.65 C3.06,1.65 2.135625,2.015625 1.5375,2.71125" id="Fill-75" mask="url(#mask-42)"></path>
                        </g>
                        <g id="Group-87" transform="translate(11.250000, 74.046938)">
                            <mask id="mask-44" fill="white">
                                <use xlink:href="#path-43"></use>
                            </mask>
                            <g id="Clip-86"></g>
                            <path d="M0.721875,6.579375 C0.37875,7.4175 3.0075,9.66 3.474375,9.635625 C3.945,9.609375 4.04625,8.88375 4.914375,9.16875 C5.7825,9.455625 12.414375,13.846875 12.414375,13.846875 C12.414375,13.846875 11.821875,14.25 11.938125,14.4075 C12.054375,14.563125 12.256875,14.94 12.564375,14.91375 C12.87,14.889375 13.396875,14.289375 13.396875,14.289375 C13.396875,14.289375 14.11125,14.2125 16.3125,12.015 C16.539375,11.80125 15.92625,11.33625 15.826875,11.36625 C15.729375,11.4 15.32625,11.6625 15.32625,11.6625 C15.32625,11.6625 10.2525,6.83625 10.014375,6.62625 C9.77625,6.418125 10.018125,6.11625 9.894375,5.925 C9.76875,5.731875 7.929375,4.389375 7.783125,3.976875 C7.636875,3.564375 6.350625,2.02875 5.308125,1.73625 C5.304375,1.734375 5.300625,1.734375 5.296875,1.734375 C4.89,1.734375 0.898125,6.144375 0.721875,6.579375" id="Fill-85" fill="#061C3F" mask="url(#mask-44)"></path>
                        </g>
                        <g id="Group-90" transform="translate(11.250000, 75.921938)">
                            <mask id="mask-46" fill="white">
                                <use xlink:href="#path-45"></use>
                            </mask>
                            <g id="Clip-89"></g>
                            <path d="M0.721875,4.704375 C0.37875,5.5425 3.0075,7.785 3.474375,7.760625 C3.945,7.734375 4.04625,7.00875 4.914375,7.29375 C5.7825,7.580625 12.414375,11.971875 12.414375,11.971875 C12.414375,11.971875 11.821875,12.375 11.938125,12.5325 C12.054375,12.688125 12.256875,13.065 12.564375,13.03875 C12.87,13.014375 13.396875,12.414375 13.396875,12.414375 C13.396875,12.414375 13.689375,12.3825 14.47125,11.78625 C14.45625,11.600625 14.41875,11.413125 14.349375,11.210625 C13.26,7.9275 9.345,5.835 7.224375,2.806875 C6.601875,1.8225 4.951875,1.573125 4.2,0.673125 C3.02625,1.719375 0.868125,4.3425 0.721875,4.704375" id="Fill-88" fill="#061C3F" mask="url(#mask-46)"></path>
                        </g>
                        <polygon id="Fill-876" fill="#FE4849" points="66.79725 64.6779375 51.150375 60.7741875 69.446625 62.3998125"></polygon>
                        <polygon id="Fill-877" fill="#FE4849" points="69.1254375 68.10375 51.1498125 60.774375 66.7966875 64.678125"></polygon>
                        <polygon id="Fill-878" fill="#FE4849" points="69.1254375 68.10375 66.7966875 64.678125 69.4460625 62.4"></polygon>
                        <polygon id="Fill-879" fill="#01B6F5" points="67.8691875 42.3481875 54.7029375 49.8706875 71.0416875 43.8556875"></polygon>
                        <polygon id="Fill-880" fill="#01B6F5" points="69.2188125 38.4058125 54.7025625 49.8695625 67.8688125 42.3489375"></polygon>
                        <polygon id="Fill-881" fill="#01B6F5" points="69.2188125 38.4058125 67.8688125 42.3489375 71.0431875 43.8545625"></polygon>
                        <polygon id="Fill-882" fill="#F8752D" points="54.2746875 34.264125 40.1690625 45.210375 59.8228125 35.182875"></polygon>
                        <polygon id="Fill-883" fill="#F8752D" points="54.9346875 31.008375 40.1690625 45.209625 54.2746875 34.263375"></polygon>
                        <polygon id="Fill-884" fill="#F8752D" points="54.9346875 31.008375 54.2746875 34.263375 59.8228125 35.184"></polygon>
                        <polygon id="Fill-1114" fill="#5C56B6" points="15.0913125 4.0981875 17.9188125 26.2306875 18.6613125 0.0013125"></polygon>
                        <polygon id="Fill-1115" fill="#5C56B6" points="11.2275 2.4495 17.919375 26.232 15.091875 4.097625"></polygon>
                        <polygon id="Fill-1116" fill="#5C56B6" points="11.2269375 2.4495 15.0913125 4.097625 18.6613125 0.00075"></polygon>
                        <polygon id="Fill-1117" fill="#1DE9B6" points="30.9331875 16.4368125 26.2738125 31.2099375 28.3475625 13.0243125"></polygon>
                        <polygon id="Fill-1118" fill="#1DE9B6" points="35.3030625 13.846875 26.2749375 31.209375 30.9324375 16.43625"></polygon>
                        <polygon id="Fill-1119" fill="#1DE9B6" points="35.3030625 13.846875 30.9324375 16.43625 28.3486875 13.02375"></polygon>
                        <polygon id="Fill-1120" fill="#FFCC00" points="44.862 20.8771875 37.8195 32.6503125 49.25325 21.2934375"></polygon>
                        <polygon id="Fill-1121" fill="#FFCC00" points="44.061 17.7699375 37.819125 32.6518125 44.861625 20.8768125"></polygon>
                        <polygon id="Fill-1122" fill="#FFCC00" points="44.061 17.7699375 44.861625 20.8768125 49.25475 21.2930625"></polygon>
                    </g>
                    <g id="Group-6" transform="translate(158.481470, 79.965065) rotate(-17.000000) translate(-158.481470, -79.965065) translate(144.481470, 65.965065)">
                        <g id="Group-3" transform="translate(0.000000, 0.025868)">
                            <mask id="mask-48" fill="white">
                                <use xlink:href="#path-47"></use>
                            </mask>
                            <g id="Clip-2"></g>
                            <path d="M27.8399455,12.5447182 C27.6529234,10.7500248 27.1265908,9.02928737 26.2755367,7.43031343 C25.4245387,5.83133948 24.2912401,4.43369619 22.9070076,3.27615711 C21.4729475,2.07698277 19.8327872,1.19018517 18.0319776,0.640397595 C15.5556329,-0.115602405 12.9284585,-0.170143487 10.4344946,0.482722244 C9.28576513,0.783427655 8.59827816,1.95841764 8.89898357,3.10714709 C9.19968898,4.25582044 10.374679,4.9432513 11.5234084,4.642602 C13.2461098,4.19162806 15.0625747,4.22984048 16.7764665,4.75308697 C21.8675848,6.30733948 24.7451319,11.7138645 23.1908232,16.8050389 C21.6365146,21.8962693 16.2300457,24.7737042 11.1388152,23.2194517 C6.04764088,21.6651431 3.17020601,16.2586741 4.72445852,11.1674437 C5.196699,9.620598 6.05285932,8.21010501 7.20041042,7.08842164 C8.04955671,6.25835351 8.06504369,4.89712705 7.23503166,4.04803687 C6.40501964,3.19889058 5.04373707,3.18334749 4.19464689,4.01335952 C3.37574509,4.81391263 2.65767695,5.71412104 2.06047455,6.68907094 C1.44565291,7.6927503 0.958262124,8.77706293 0.611825251,9.91187655 C0.0620376754,11.7126301 -0.118475351,13.5684858 0.0753362725,15.4277643 C0.262358317,17.2224577 0.788690982,18.9431952 1.63968898,20.5421691 C2.49068697,22.1411431 3.62404168,23.5387864 5.00827415,24.6963255 C6.44233427,25.8954998 8.0825507,26.7822974 9.8832481,27.332085 C11.6840577,27.8818164 13.5398573,28.0623295 15.3991359,27.8685739 C17.1938293,27.6815519 18.9146228,27.1551631 20.5135968,26.3041651 C22.1125707,25.4531671 23.510214,24.3198124 24.6677531,22.93558 C25.8669275,21.501576 26.7537251,19.8613595 27.3034565,18.060606 C27.853188,16.2597964 28.0337571,14.4039968 27.8399455,12.5447182" id="Fill-1" fill="#061C3F" mask="url(#mask-48)"></path>
                        </g>
                        <path d="M15.9122036,6.29774429 C14.7765483,5.95102685 13.5731655,6.59008898 13.2264481,7.7258004 L11.0317307,14.9146741 C10.8571094,15.4866822 10.9404922,16.0906741 11.2036585,16.5785138 C11.461382,17.0692713 11.9151054,17.476085 12.4871134,17.6507062 L18.4916265,19.4838365 C19.6272818,19.8304978 20.835378,19.1698886 21.1820954,18.0342333 C21.5288128,16.8985218 20.8956986,15.6757804 19.7599872,15.3290629 L15.7760754,14.1128305 L17.3423359,8.98232144 C17.6890533,7.84666613 17.0478589,6.64446172 15.9122036,6.29774429" id="Fill-4" fill="#061C3F"></path>
                    </g>
                </g>
            </g>
        </g>
    </g>
</svg>